<svg width="124" height="83" viewBox="0 0 124 83" fill="none" xmlns="http://www.w3.org/2000/svg">
<path d="M7.559 0.5H116.32H116.322V0.511C118.27 0.513 120.035 1.309 121.309 2.591C122.577 3.87 123.366 5.636 123.366 7.58H123.38V7.586H123.366V79.718C123.366 81.348 122.044 82.673 120.411 82.673V82.684H3.468C1.829 82.685 0.5 81.356 0.5 79.719C0.5 79.628 0.504 79.537 0.514 79.449V7.586H0.5V7.584H0.514C0.514 5.636 1.303 3.867 2.573 2.59C3.845 1.309 5.607 0.513 7.553 0.51V0.5H7.559ZM16.317 14.267H91.619V25.242H16.317V14.267ZM96.236 14.267H107.562V25.242H96.236V14.267ZM16.317 68.918V62.684C19.652 61.202 29.864 58.451 30.345 54.367C30.453 53.446 28.281 49.863 27.782 48.179C27.156 47.179 26.818 46.825 26.834 45.592C26.843 44.898 26.855 44.215 26.952 43.548C27.081 42.695 27.054 42.671 27.501 41.984C27.963 41.272 27.766 38.669 27.766 37.687C27.766 27.914 44.891 27.911 44.891 37.687C44.891 38.923 44.605 41.193 45.279 42.166C45.603 42.638 45.547 42.694 45.655 43.272C45.798 44.027 45.809 44.802 45.821 45.592C45.837 46.825 45.501 47.179 44.876 48.179C44.268 49.948 41.959 53.295 42.157 54.297C42.892 58.026 52.362 60.53 55.344 61.858V68.92H16.317V68.918ZM61.359 34.885H107.562V40.965H61.359V34.885ZM62.43 62.269H107.563V68.349H62.43V62.269ZM81.975 48.577H107.563V54.656H81.975V48.577ZM62.43 48.577H76.75V54.656H62.43V48.577ZM116.32 6.432H7.559H7.552V6.421C7.255 6.421 6.974 6.553 6.767 6.761C6.555 6.977 6.423 7.267 6.423 7.584H6.435V7.586H6.423V76.753H117.457V7.586H117.445V7.58H117.457C117.457 7.267 117.325 6.976 117.114 6.764C116.905 6.553 116.624 6.421 116.322 6.421V6.432H116.32Z" fill="#6B44AA"/>
</svg>
