<svg width="124" height="115" viewBox="0 0 124 115" fill="none" xmlns="http://www.w3.org/2000/svg">
<path fill-rule="evenodd" clip-rule="evenodd" d="M111.3 108.38V112.86C111.3 114.02 110.36 114.95 109.21 114.95H14.1101C12.9501 114.95 12.0201 114.01 12.0201 112.86V108.38V84.6999V59.3999C9.68012 60.2999 7.49012 60.3199 5.67012 59.6999C4.25012 59.2199 3.05012 58.3599 2.17012 57.2499C1.29012 56.1399 0.73012 54.7899 0.56012 53.2999C0.30012 50.9899 0.99012 48.3799 2.96012 45.9299C3.06012 45.8099 3.17012 45.6899 3.30012 45.5899L60.3501 1.04986C61.0901 0.369856 62.2301 0.299856 63.0501 0.939856L120.24 45.3999C120.33 45.4699 120.41 45.5399 120.49 45.6299C123.14 48.4799 123.8 51.6399 123.16 54.3099C122.84 55.6299 122.21 56.8199 121.34 57.7899C120.47 58.7699 119.36 59.5299 118.1 59.9799C116.1 60.6999 113.72 60.6799 111.31 59.5399V84.6999V108.38H111.3ZM6.07012 48.7299C4.96012 50.1799 4.57012 51.6299 4.70012 52.8499C4.78012 53.5499 5.03012 54.1699 5.43012 54.6699C5.82012 55.1599 6.35012 55.5299 6.99012 55.7499C8.08012 56.1199 9.49012 56.0199 11.1001 55.2599L60.8901 17.3799C61.6601 16.7899 62.7101 16.8199 63.4401 17.3899L111.81 54.9899C111.83 55.0099 111.85 55.0299 111.88 55.0399C113.65 56.3199 115.35 56.5199 116.67 56.0499C117.28 55.8299 117.81 55.4699 118.22 54.9999C118.64 54.5299 118.94 53.9699 119.09 53.3399C119.42 51.9599 119.02 50.2599 117.54 48.5999L61.7701 5.23986L6.07012 48.7299ZM30.1001 75.9899H56.8001C57.8401 75.9899 58.6901 76.8199 58.6901 77.8399V98.7299C58.6901 99.7499 57.8401 100.58 56.8001 100.58H30.1001C29.0601 100.58 28.2101 99.7499 28.2101 98.7299V77.8399C28.2201 76.8199 29.0601 75.9899 30.1001 75.9899ZM68.2301 74.1499H93.3001C94.4201 74.1499 95.3301 75.0899 95.3301 76.2499V110.77H107.11V57.0699C107.11 56.9299 107.12 56.7999 107.15 56.6699L62.1401 21.6799L16.1301 56.6899C16.1801 56.8599 16.2001 57.0399 16.2001 57.2299V110.76H66.2001V76.2399C66.2001 75.0799 67.1101 74.1499 68.2301 74.1499ZM91.2701 78.3399H70.2701V110.72H91.2701V78.3399ZM54.9101 90.1299H45.0001V96.8799H54.9101V90.1299ZM41.3001 90.1299H31.9901V96.8799H41.3001V90.1299ZM31.9901 86.4299H41.3001V79.6899H31.9901V86.4299ZM45.0001 86.4299H54.9101V79.6899H45.0001V86.4299ZM61.3801 36.8299C64.9301 36.8299 67.8101 39.7099 67.8101 43.2599C67.8101 46.8099 64.9301 49.6899 61.3801 49.6899C57.8301 49.6899 54.9501 46.8099 54.9501 43.2599C54.9501 39.6999 57.8301 36.8299 61.3801 36.8299Z" fill="#6B44AA"/>
</svg>
