<svg width="123" height="96" viewBox="0 0 123 96" fill="none" xmlns="http://www.w3.org/2000/svg">
<path fill-rule="evenodd" clip-rule="evenodd" d="M0 95.4902V80.6002C7.12 77.4302 34.98 70.4402 36.74 61.5402C37.53 57.5302 35.72 55.6002 33.74 52.4402L27.37 42.2902C25.88 39.9002 24.76 39.0502 24.79 36.1102C24.81 34.4502 24.84 32.8202 25.08 31.2302C25.38 29.2002 25.63 29.1302 26.7 27.5002C27.42 26.4002 27.33 26.0702 27.33 23.5402V17.2402C27.33 9.9602 30.01 5.4002 34.53 2.8202C41.15 -0.959804 54.57 -0.959804 61.15 2.9002C65.59 5.5002 68.21 10.0402 68.21 17.2402V23.5402C68.21 26.3702 68.11 26.4502 69.14 27.9302C69.92 29.0602 70.09 29.1902 70.36 30.5702C70.7 32.3802 70.73 34.2202 70.75 36.1102C70.79 39.0502 69.67 39.9002 68.18 42.2902L72.8 45.1802L73.57 44.0602C75.11 41.8202 76.17 40.2702 76.21 36.6202C76.23 36.4402 76.23 36.2502 76.23 36.0602H76.21C76.2 34.9602 76.18 33.8802 76.13 33.0202C76.06 31.8602 75.95 30.7002 75.73 29.5502C75.32 27.4102 75.02 26.8402 74.12 25.5302C74.04 25.3902 73.95 25.2602 73.86 25.1202L73.74 24.9502L73.66 24.8302L73.65 24.8102H73.64C73.64 24.7802 73.68 24.7402 73.68 24.2302V23.5402H73.7V17.2402C73.7 15.1302 73.5 13.1802 73.13 11.3702C85.91 2.6802 103.56 11.2702 107.19 37.1702C110.68 62.1102 125.64 61.2202 102.29 61.2202H92.97C92.94 67.5702 91.94 70.8202 98.53 74.3802C105.11 77.9402 122.88 79.7702 122.88 88.7902V94.5702C122.88 95.0302 122.5 95.4102 122.03 95.4102H98.66V78.7302C98.66 72.9802 90.69 71.9002 86.49 70.6002C82.65 69.4202 78.12 68.0202 74.16 66.5402C74.25 64.9802 74.12 63.2402 74.11 61.2202H64.52C64.36 60.9702 64.25 60.7302 64.21 60.4902C63.98 59.3202 64.56 58.2902 65.37 57.0302C65.46 56.9102 65.56 56.7802 65.64 56.6402L65.47 56.5302L65.64 56.6302L66.26 55.6602L66.48 55.3402L66.47 55.3302L72.6 45.5502L72.85 45.1902L68.21 42.2802L61.84 52.4302C59.86 55.5902 58.05 57.5302 58.84 61.5302C60.59 70.4302 86.08 75.4402 93.2 78.6102V95.4702L0 95.4902Z" fill="#6B44AA"/>
</svg>
