<svg width="120" height="124" viewBox="0 0 120 124" fill="none" xmlns="http://www.w3.org/2000/svg">
<path fill-rule="evenodd" clip-rule="evenodd" d="M1.93207 21.2141C11.3591 27.6901 20.7111 34.2031 28.6051 42.5891C24.0801 62.5761 42.1401 78.5451 58.6111 87.9531C65.0591 91.6361 67.9091 94.2181 75.0871 92.9771L103.355 120.673C50.1571 138.539 -9.54493 63.5841 1.93207 21.2141ZM82.3741 85.8561L88.5751 79.5581C90.3631 77.7391 93.3151 77.7161 95.1341 79.5051L117.996 102.014C119.814 103.803 119.837 106.755 118.049 108.573L111.846 114.872C110.057 116.69 107.105 116.713 105.286 114.924L82.4241 92.4151C80.6051 90.6271 80.5831 87.6751 82.3741 85.8561ZM7.50407 7.96709L12.0041 2.50309C13.9331 0.161089 17.4291 -0.176911 19.7711 1.75209L43.1761 21.0331C45.5181 22.9641 45.8531 26.4581 43.9261 28.8031L39.4241 34.2641C37.4941 36.6091 33.9991 36.9441 31.6561 35.0151L8.25507 15.7341C5.91307 13.8051 5.57307 10.3091 7.50407 7.96709Z" fill="#6B44AA"/>
</svg>
