<svg width="298" height="289" viewBox="0 0 298 289" fill="none" xmlns="http://www.w3.org/2000/svg">
<path d="M281.574 138.72C277.14 117.846 267.857 98.2266 254.431 81.3535C241.006 64.4804 223.791 50.7974 204.094 41.3443C199.891 39.3251 195.432 37.2964 190.72 35.258C131.716 9.82596 97.7441 31.79 80.4601 57.222C63.1761 82.6539 41.7201 126.582 28.0121 147.968C14.3041 169.354 -3.5759 214.438 30.9921 245.65C65.5601 276.862 98.3401 266.458 120.988 257.788C143.636 249.118 166.284 256.632 208.004 256.632C249.724 256.632 284.292 225.42 286.676 186.694C287.546 172.521 285.067 155.095 281.574 138.72Z" fill="#7E57C2"/>
<path opacity="0.7" d="M281.574 138.72C277.14 117.846 267.857 98.2266 254.431 81.3535C241.006 64.4804 223.791 50.7974 204.094 41.3443C199.891 39.3251 195.432 37.2964 190.72 35.258C131.716 9.82596 97.7441 31.79 80.4601 57.222C63.1761 82.6539 41.7201 126.582 28.0121 147.968C14.3041 169.354 -3.5759 214.438 30.9921 245.65C65.5601 276.862 98.3401 266.458 120.988 257.788C143.636 249.118 166.284 256.632 208.004 256.632C249.724 256.632 284.292 225.42 286.676 186.694C287.546 172.521 285.067 155.095 281.574 138.72Z" fill="white"/>
<path d="M212.075 148.43C208.719 136.945 201.859 126.712 192.397 119.076C182.935 111.44 171.312 106.759 159.056 105.646C146.8 104.533 134.483 107.041 123.724 112.841C112.965 118.64 104.265 127.46 98.7693 138.142" stroke="#263238" stroke-linecap="round" stroke-linejoin="round"/>
<path d="M214.352 163.314C214.292 160.523 214.031 157.74 213.571 154.985" stroke="#263238" stroke-linecap="round" stroke-linejoin="round"/>
<path d="M101.541 195.734C108.233 206.169 118.11 214.323 129.799 219.066C141.488 223.809 154.411 224.904 166.771 222.199C179.131 219.494 190.317 213.124 198.774 203.973C207.231 194.823 212.54 183.345 213.964 171.134" stroke="#263238" stroke-linecap="round" stroke-linejoin="round"/>
<path d="M97.6726 188.677C98.2686 189.954 98.9004 191.214 99.5798 192.445" stroke="#263238" stroke-linecap="round" stroke-linejoin="round"/>
<path d="M96.5521 142.986C91.2147 156.271 90.9841 170.975 95.9025 184.411" stroke="#263238" stroke-linecap="round" stroke-linejoin="round"/>
<path d="M195.488 176.51C196.078 174.555 196.522 172.561 196.817 170.545L193.915 170.25C193.719 170.23 193.529 170.173 193.356 170.082C193.183 169.992 193.031 169.869 192.907 169.72C192.783 169.572 192.69 169.402 192.634 169.219C192.578 169.036 192.559 168.844 192.58 168.655C192.6 168.465 192.659 168.281 192.752 168.113C192.846 167.945 192.973 167.797 193.126 167.677C193.278 167.557 193.454 167.467 193.643 167.412C193.831 167.358 194.029 167.34 194.225 167.36L197.127 167.655C197.205 166.62 197.258 165.574 197.258 164.522C197.259 160.567 196.689 156.631 195.566 152.829L192.586 153.765C192.437 153.81 192.282 153.834 192.127 153.835C191.771 153.835 191.427 153.713 191.157 153.489C190.887 153.265 190.708 152.955 190.652 152.615C190.597 152.274 190.669 151.926 190.855 151.632C191.041 151.339 191.329 151.12 191.668 151.014L194.648 150.072C192.878 145.336 190.255 140.942 186.9 137.096L184.438 139.246C184.165 139.484 183.811 139.616 183.443 139.616C183.234 139.618 183.027 139.576 182.836 139.495C182.645 139.413 182.474 139.293 182.334 139.142C182.07 138.858 181.932 138.483 181.953 138.1C181.973 137.718 182.149 137.358 182.442 137.102L184.903 134.951C181.285 131.312 177.029 128.326 172.334 126.131L170.933 129.189C170.815 129.444 170.623 129.66 170.381 129.812C170.139 129.964 169.856 130.044 169.568 130.044C169.362 130.044 169.159 130 168.972 129.917C168.793 129.84 168.632 129.73 168.497 129.592C168.362 129.455 168.257 129.293 168.186 129.115C168.116 128.938 168.082 128.749 168.087 128.56C168.092 128.37 168.136 128.183 168.215 128.01L169.61 124.975C164.773 123.102 159.63 122.081 154.424 121.958V125.316C154.424 125.699 154.267 126.067 153.987 126.338C153.708 126.609 153.329 126.761 152.934 126.761C152.539 126.761 152.16 126.609 151.88 126.338C151.601 126.067 151.444 125.699 151.444 125.316V121.981C146.227 122.194 141.092 123.312 136.282 125.282L137.676 128.316C137.756 128.489 137.799 128.676 137.804 128.866C137.809 129.056 137.775 129.245 137.705 129.422C137.635 129.599 137.529 129.761 137.394 129.898C137.26 130.036 137.098 130.146 136.919 130.223C136.732 130.307 136.529 130.35 136.323 130.351C136.035 130.351 135.753 130.27 135.511 130.118C135.269 129.966 135.077 129.75 134.958 129.495L133.588 126.507C128.943 128.787 124.752 131.847 121.209 135.547L123.64 137.668C123.865 137.863 124.023 138.12 124.093 138.404C124.164 138.689 124.144 138.987 124.036 139.26C123.928 139.533 123.738 139.768 123.489 139.934C123.241 140.099 122.947 140.188 122.645 140.188C122.277 140.188 121.921 140.054 121.65 139.812L119.266 137.726C115.997 141.642 113.469 146.088 111.798 150.858L114.73 151.777C115.069 151.883 115.357 152.102 115.543 152.395C115.729 152.689 115.801 153.037 115.746 153.378C115.691 153.718 115.511 154.028 115.241 154.252C114.971 154.476 114.627 154.598 114.271 154.598C114.114 154.597 113.957 154.574 113.806 154.528L110.934 153.621C109.959 157.187 109.466 160.861 109.468 164.551C109.468 165.863 109.539 167.158 109.658 168.441L112.501 168.152C112.896 168.112 113.292 168.226 113.6 168.469C113.909 168.712 114.105 169.063 114.146 169.446C114.187 169.83 114.07 170.213 113.819 170.512C113.569 170.811 113.206 171.002 112.811 171.042L110.022 171.331C110.834 176.225 112.528 180.942 115.028 185.266L117.335 183.977C117.677 183.789 118.082 183.739 118.462 183.839C118.841 183.939 119.165 184.181 119.362 184.511C119.558 184.842 119.612 185.234 119.512 185.603C119.411 185.972 119.164 186.287 118.825 186.48L116.572 187.74C119.351 191.882 122.85 195.525 126.912 198.508L128.385 196.543C128.634 196.285 128.972 196.125 129.335 196.093C129.698 196.061 130.06 196.158 130.354 196.367C130.647 196.577 130.852 196.883 130.928 197.229C131.005 197.574 130.948 197.935 130.769 198.242L129.332 200.173C133.584 202.867 138.287 204.823 143.231 205.953L143.738 203.641C143.836 203.285 144.07 202.979 144.393 202.785C144.716 202.591 145.103 202.524 145.476 202.598C145.848 202.672 146.177 202.881 146.395 203.182C146.614 203.483 146.706 203.854 146.652 204.219L146.151 206.496C151.159 207.306 156.273 207.265 161.266 206.375L160.759 204.063C160.707 203.873 160.695 203.674 160.725 203.479C160.754 203.284 160.825 203.097 160.932 202.93C161.039 202.762 161.18 202.618 161.346 202.505C161.513 202.392 161.701 202.314 161.9 202.274C162.099 202.235 162.304 202.235 162.503 202.275C162.702 202.316 162.89 202.395 163.056 202.508C163.223 202.622 163.363 202.767 163.469 202.935C163.575 203.103 163.645 203.29 163.674 203.485L164.18 205.797C169.111 204.583 173.786 202.545 177.996 199.774L176.5 197.78C176.356 197.631 176.246 197.454 176.177 197.261C176.109 197.068 176.083 196.862 176.103 196.659C176.122 196.456 176.185 196.258 176.289 196.08C176.393 195.903 176.534 195.748 176.704 195.627C176.874 195.506 177.068 195.421 177.274 195.378C177.48 195.336 177.693 195.336 177.899 195.379C178.105 195.421 178.299 195.506 178.469 195.627C178.639 195.748 178.78 195.903 178.884 196.081L180.368 198.063C184.387 195.011 187.831 191.308 190.547 187.116L188.205 185.804C188.034 185.71 187.884 185.584 187.764 185.433C187.644 185.282 187.555 185.11 187.504 184.926C187.452 184.742 187.439 184.55 187.464 184.361C187.489 184.172 187.553 183.99 187.651 183.825C187.749 183.66 187.88 183.516 188.036 183.4C188.193 183.284 188.371 183.199 188.561 183.151C188.751 183.102 188.949 183.09 189.143 183.116C189.338 183.142 189.526 183.205 189.695 183.301L192.079 184.619C193.044 182.87 193.883 181.059 194.588 179.197" stroke="#263238" stroke-linecap="round" stroke-linejoin="round"/>
<path d="M127.884 150.702C124.198 157.078 123.197 164.588 125.09 171.663C126.982 178.738 131.622 184.829 138.039 188.664C144.455 192.498 152.152 193.778 159.519 192.236C166.886 190.694 173.353 186.45 177.568 180.39C181.783 174.331 183.419 166.926 182.135 159.724C180.85 152.522 176.745 146.08 170.676 141.746C164.607 137.412 157.046 135.521 149.573 136.468C142.1 137.415 135.294 141.128 130.578 146.829" stroke="#263238" stroke-linecap="round" stroke-linejoin="round"/>
<path d="M121.709 67.5741C124.349 60.3316 129.543 54.2272 136.374 50.3395C143.206 46.4519 151.234 45.0313 159.041 46.3289C166.848 47.6265 173.93 51.5587 179.037 57.4305C184.144 63.3024 186.945 70.7359 186.947 78.4174V94.139" stroke="#263238" stroke-linecap="round" stroke-linejoin="round"/>
<path d="M197.675 117.392V78.4173C197.743 72.733 196.648 67.0922 194.452 61.8216C192.256 56.5509 189.003 51.7552 184.882 47.7123C180.762 43.6694 175.855 40.4597 170.446 38.2691C165.037 36.0784 159.233 34.9504 153.372 34.9504C147.51 34.9504 141.707 36.0784 136.298 38.2691C130.889 40.4597 125.982 43.6694 121.861 47.7123C117.74 51.7552 114.488 56.5509 112.292 61.8216C110.096 67.0922 109 72.733 109.068 78.4173V123.889C112.287 120.588 115.887 117.658 119.796 115.155V78.4173C119.797 76.0851 120.057 73.7597 120.571 71.4813" stroke="#263238" stroke-linecap="round" stroke-linejoin="round"/>
<path d="M186.948 99.8784V115.155C190.857 117.658 194.456 120.588 197.676 123.889V119.808" stroke="#263238" stroke-linecap="round" stroke-linejoin="round"/>
<path d="M194.695 254.511H112.048C109.888 254.511 107.817 253.679 106.289 252.199C104.761 250.718 103.902 248.71 103.901 246.615C103.901 244.52 104.759 242.51 106.287 241.028C107.815 239.546 109.887 238.714 112.048 238.714H194.695C196.855 238.716 198.926 239.549 200.452 241.03C201.979 242.512 202.837 244.521 202.837 246.615C202.835 248.709 201.977 250.716 200.45 252.196C198.924 253.677 196.854 254.509 194.695 254.511Z" fill="#263238" stroke="#263238" stroke-linecap="round" stroke-linejoin="round"/>
<path d="M114.938 245.748L114.176 241.055H116.816L116.053 245.748L120.428 243.615L121.25 246.037L116.434 246.806L119.867 250.135L117.758 251.644L115.499 247.436L113.24 251.667L111.124 250.158L114.557 246.829L109.747 246.037L110.57 243.615L114.938 245.748Z" fill="#7E57C2"/>
<path d="M133.939 245.748L133.176 241.055H135.816L135.053 245.748L139.428 243.615L140.251 246.037L135.435 246.806L138.868 250.158L136.758 251.667L134.499 247.459L132.24 251.667L130.125 250.158L133.557 246.829L128.736 246.037L129.552 243.615L133.939 245.748Z" fill="#7E57C2"/>
<path d="M152.939 245.748L152.177 241.055H154.817L154.054 245.748L158.429 243.615L159.251 246.037L154.435 246.806L157.868 250.135L155.759 251.644L153.5 247.436L151.235 251.644L149.125 250.135L152.576 246.806L147.76 246.014L148.583 243.592L152.939 245.748Z" fill="#7E57C2"/>
<path d="M171.94 245.748L171.177 241.055H173.817L173.055 245.748L177.429 243.615L178.252 246.037L173.436 246.806L176.869 250.135L174.759 251.644L172.494 247.436L170.235 251.644L168.126 250.135L171.559 246.806L166.743 246.014L167.565 243.592L171.94 245.748Z" fill="#7E57C2"/>
<path d="M190.94 245.748L190.178 241.055H192.818L192.055 245.748L196.43 243.615L197.246 246.037L192.436 246.806L195.869 250.135L193.754 251.644L191.495 247.436L189.236 251.644L187.144 250.158L190.577 246.829L185.761 246.037L186.584 243.615L190.94 245.748Z" fill="#7E57C2"/>
<path d="M249.092 227.281H227.374" stroke="#263238" stroke-linecap="round" stroke-linejoin="round"/>
<path d="M254.265 187.85V201.086C254.264 201.776 254.403 202.46 254.674 203.098C254.945 203.736 255.344 204.316 255.846 204.805C256.349 205.293 256.946 205.681 257.603 205.945C258.261 206.21 258.965 206.346 259.677 206.346H261.048C261.745 206.346 262.435 206.479 263.079 206.738C263.723 206.997 264.308 207.376 264.801 207.855C265.293 208.333 265.684 208.901 265.95 209.526C266.216 210.15 266.353 210.82 266.352 211.496V221.189C266.352 222.806 265.69 224.357 264.511 225.501C263.331 226.644 261.732 227.287 260.064 227.287H252.239" stroke="#263238" stroke-linecap="round" stroke-linejoin="round"/>
<path d="M254.051 196.48H256.119C257.7 196.48 259.216 195.871 260.333 194.787C261.451 193.703 262.079 192.233 262.079 190.7V187.232" stroke="#263238" stroke-linecap="round" stroke-linejoin="round"/>
<path d="M242.196 187.654V191.757H244.515C246.202 191.759 247.819 192.41 249.012 193.567C250.204 194.725 250.874 196.294 250.874 197.93V198.74H253.854" stroke="#263238" stroke-linecap="round" stroke-linejoin="round"/>
<path d="M233.715 191.757H228.852" stroke="#263238" stroke-linecap="round" stroke-linejoin="round"/>
<path d="M242.196 191.757H236.862" stroke="#263238" stroke-linecap="round" stroke-linejoin="round"/>
<path d="M259.343 227.489V239.483" stroke="#263238" stroke-linecap="round" stroke-linejoin="round"/>
<path d="M266.758 216.195H273.32" stroke="#263238" stroke-linecap="round" stroke-linejoin="round"/>
<path d="M270.351 216.195V211.675H273.743" stroke="#263238" stroke-linecap="round" stroke-linejoin="round"/>
<path d="M271.114 197.919H274.166" stroke="#263238" stroke-linecap="round" stroke-linejoin="round"/>
<path d="M264.004 207.635V197.919H267.974" stroke="#263238" stroke-linecap="round" stroke-linejoin="round"/>
<path d="M228.22 234.055L234.359 229.744H248.121C249.3 229.744 250.431 230.198 251.265 231.006C252.098 231.815 252.567 232.912 252.567 234.055V239.136" stroke="#263238" stroke-linecap="round" stroke-linejoin="round"/>
<path d="M271.126 225.299V238.783" stroke="#263238" stroke-linecap="round" stroke-linejoin="round"/>
<path d="M256.786 221.183H266.334H271.126V222.247" stroke="#263238" stroke-linecap="round" stroke-linejoin="round"/>
<path d="M227.094 221.183H253.991" stroke="#263238" stroke-linecap="round" stroke-linejoin="round"/>
<path d="M261.739 221.287L260.833 219.276C260.351 218.209 259.559 217.301 258.554 216.663C257.548 216.026 256.373 215.686 255.171 215.687H230.706V226.888" stroke="#263238" stroke-linecap="round" stroke-linejoin="round"/>
<path d="M274.374 231.784H251.995" stroke="#263238" stroke-linecap="round" stroke-linejoin="round"/>
<path d="M261.382 211.484C261.383 211.068 261.257 210.661 261.019 210.314C260.781 209.967 260.443 209.697 260.047 209.537C259.65 209.376 259.214 209.334 258.793 209.414C258.371 209.495 257.984 209.695 257.68 209.989C257.376 210.283 257.169 210.658 257.085 211.066C257.001 211.474 257.043 211.898 257.207 212.282C257.371 212.667 257.649 212.996 258.006 213.228C258.363 213.459 258.783 213.583 259.212 213.583C259.497 213.583 259.779 213.53 260.042 213.425C260.305 213.319 260.544 213.165 260.746 212.97C260.947 212.775 261.107 212.544 261.216 212.289C261.325 212.034 261.382 211.76 261.382 211.484Z" stroke="#263238" stroke-linecap="round" stroke-linejoin="round"/>
<path d="M247.31 233.535H233.954V237.385H247.31V233.535Z" stroke="#263238" stroke-linecap="round" stroke-linejoin="round"/>
<path d="M242.435 196.104C239.63 196.101 236.939 197.178 234.953 199.099C232.967 201.019 231.849 203.626 231.844 206.346C231.844 212.01 242.423 224.767 242.423 224.767C242.423 224.767 253.002 212.01 253.002 206.346C252.997 203.63 251.882 201.027 249.901 199.107C247.921 197.187 245.235 196.107 242.435 196.104ZM242.435 209.924C241.709 209.924 240.999 209.715 240.395 209.324C239.791 208.933 239.321 208.377 239.043 207.726C238.765 207.075 238.692 206.359 238.834 205.669C238.976 204.978 239.325 204.344 239.839 203.846C240.352 203.348 241.006 203.009 241.719 202.871C242.431 202.734 243.169 202.804 243.84 203.074C244.511 203.343 245.084 203.8 245.488 204.385C245.891 204.971 246.106 205.659 246.106 206.363C246.106 207.308 245.719 208.213 245.031 208.881C244.342 209.549 243.409 209.924 242.435 209.924Z" fill="#263238" stroke="#263238" stroke-linecap="round" stroke-linejoin="round"/>
<path d="M240.271 194.705C237.466 194.705 234.775 195.786 232.791 197.71C230.807 199.634 229.692 202.244 229.692 204.965C229.692 210.629 240.271 223.385 240.271 223.385C240.271 223.385 250.844 210.629 250.844 204.965C250.844 202.245 249.731 199.636 247.748 197.712C245.765 195.788 243.076 194.707 240.271 194.705ZM240.271 208.519C239.545 208.519 238.835 208.31 238.231 207.919C237.627 207.527 237.157 206.971 236.879 206.32C236.601 205.669 236.529 204.953 236.671 204.262C236.813 203.571 237.163 202.937 237.677 202.439C238.191 201.941 238.846 201.603 239.559 201.466C240.271 201.329 241.01 201.401 241.68 201.671C242.351 201.941 242.924 202.399 243.327 202.985C243.73 203.571 243.944 204.26 243.943 204.965C243.943 205.432 243.848 205.895 243.663 206.326C243.479 206.758 243.208 207.15 242.867 207.48C242.526 207.81 242.121 208.072 241.676 208.25C241.231 208.429 240.753 208.52 240.271 208.519Z" fill="#7E57C2" stroke="#263238" stroke-linecap="round" stroke-linejoin="round"/>
<path d="M276.931 172.822L283.66 142.905H267.395L276.931 172.822Z" fill="#263238" stroke="#263238" stroke-linecap="round" stroke-linejoin="round"/>
<path d="M278.004 117.392H238.459V159.28H278.004V117.392Z" fill="white" stroke="#263238" stroke-linecap="round" stroke-linejoin="round"/>
<path d="M274.965 114.883H235.42V156.771H274.965V114.883Z" fill="white" stroke="#263238" stroke-linecap="round" stroke-linejoin="round"/>
<path d="M248.323 119.721H238.227V130.391H248.323V119.721Z" fill="white" stroke="#263238" stroke-linecap="round" stroke-linejoin="round"/>
<path d="M260.279 120.056H270.757" stroke="#263238" stroke-linecap="round" stroke-linejoin="round"/>
<path d="M251.965 120.056H257.835" stroke="#263238" stroke-linecap="round" stroke-linejoin="round"/>
<path d="M266.925 123.86H270.757" stroke="#263238" stroke-linecap="round" stroke-linejoin="round"/>
<path d="M251.965 123.86H264.827" stroke="#263238" stroke-linecap="round" stroke-linejoin="round"/>
<path d="M259.933 127.669H270.757" stroke="#263238" stroke-linecap="round" stroke-linejoin="round"/>
<path d="M251.965 127.669H256.786" stroke="#263238" stroke-linecap="round" stroke-linejoin="round"/>
<path d="M262.729 131.478H270.757" stroke="#263238" stroke-linecap="round" stroke-linejoin="round"/>
<path d="M251.965 131.478H258.884" stroke="#263238" stroke-linecap="round" stroke-linejoin="round"/>
<path d="M266.925 135.287H270.757" stroke="#263238" stroke-linecap="round" stroke-linejoin="round"/>
<path d="M256.435 135.287H263.074" stroke="#263238" stroke-linecap="round" stroke-linejoin="round"/>
<path d="M251.965 135.287H254.73" stroke="#263238" stroke-linecap="round" stroke-linejoin="round"/>
<path d="M243.341 126.177C244.753 126.177 245.898 125.067 245.898 123.698C245.898 122.328 244.753 121.218 243.341 121.218C241.929 121.218 240.784 122.328 240.784 123.698C240.784 125.067 241.929 126.177 243.341 126.177Z" fill="#263238" stroke="#263238" stroke-linecap="round" stroke-linejoin="round"/>
<path d="M247 128.137C246.773 127.751 246.446 127.431 246.05 127.207C245.655 126.984 245.205 126.866 244.747 126.865H242.125C241.71 126.866 241.302 126.964 240.934 127.149C240.566 127.334 240.249 127.601 240.009 127.929L238.221 130.391H248.317L247 128.137Z" fill="#263238" stroke="#263238" stroke-linecap="round" stroke-linejoin="round"/>
<path d="M229.812 136.373L236.26 172.822H276.931L273.004 139.639H250.004L246.917 136.102L229.812 136.373Z" fill="#7E57C2" stroke="#263238" stroke-linecap="round" stroke-linejoin="round"/>
<path d="M255.827 151.604C255.741 150.722 255.322 149.902 254.651 149.3C253.981 148.699 253.105 148.358 252.191 148.344C251.76 148.337 251.332 148.418 250.935 148.583C250.539 148.748 250.183 148.993 249.891 149.301C249.598 149.608 249.377 149.973 249.24 150.37C249.104 150.767 249.055 151.187 249.098 151.604C249.15 152.174 249.341 152.725 249.658 153.208C249.974 153.692 250.406 154.095 250.916 154.384L250.743 163.302H255.791L254.176 154.528C254.722 154.258 255.171 153.834 255.466 153.312C255.76 152.791 255.886 152.195 255.827 151.604Z" fill="#263238" stroke="#263238" stroke-linecap="round" stroke-linejoin="round"/>
<path d="M273.51 71.2963C273.543 71.4113 273.614 71.5127 273.712 71.5847C273.81 71.6568 273.93 71.6956 274.053 71.6951C274.104 71.7008 274.156 71.7008 274.208 71.6951C274.349 71.6498 274.468 71.5546 274.541 71.4283C274.614 71.302 274.635 71.1539 274.601 71.0131C274.184 69.5544 273.539 68.1664 272.688 66.8977C272.601 66.7803 272.473 66.6987 272.327 66.6687C272.181 66.6388 272.029 66.6627 271.901 66.7359C271.781 66.8207 271.698 66.946 271.668 67.0871C271.639 67.2283 271.664 67.3751 271.74 67.4988C272.525 68.6703 273.122 69.9507 273.51 71.2963Z" fill="#263238"/>
<path d="M242.781 66.1059C242.881 66.1766 243.002 66.215 243.126 66.2157C243.213 66.2143 243.299 66.1945 243.377 66.1575C243.455 66.1206 243.524 66.0675 243.579 66.0019C245.34 64.0381 247.568 62.5195 250.069 61.5769C252.57 60.6344 255.271 60.2963 257.937 60.5918C263.378 61.1698 267.538 62.9038 270.286 65.6956C270.335 65.7535 270.396 65.8011 270.465 65.8352C270.534 65.8694 270.61 65.8894 270.687 65.8941C270.765 65.8989 270.842 65.8881 270.915 65.8626C270.988 65.8371 271.055 65.7973 271.111 65.7458C271.167 65.6943 271.212 65.6321 271.243 65.563C271.273 65.494 271.289 65.4196 271.289 65.3445C271.289 65.2693 271.273 65.195 271.241 65.1261C271.21 65.0573 271.165 64.9953 271.108 64.9442C268.17 61.927 263.778 60.0947 258.056 59.4994C255.196 59.1578 252.293 59.5102 249.608 60.5251C246.923 61.54 244.54 63.1855 242.673 65.3141C242.583 65.4341 242.543 65.5834 242.563 65.7309C242.583 65.8784 242.661 66.0127 242.781 66.1059Z" fill="#263238"/>
<path d="M274.756 74.9319C271.776 74.3944 270.489 71.4639 269.452 69.0652C269.213 68.5277 268.993 68.019 268.766 67.5855C267.443 65.0134 261.781 62.3835 256.465 62.8113C254.218 62.9962 246.655 64.1869 243.645 71.6662C242.304 75.0013 242.262 78.6716 242.453 81.1685C242.47 81.3047 242.536 81.4306 242.639 81.5237C242.743 81.6169 242.878 81.6713 243.019 81.6772H243.061C243.206 81.6601 243.34 81.5918 243.437 81.4852C243.533 81.3786 243.586 81.2412 243.585 81.0992C243.394 78.7178 243.436 75.2209 244.694 72.0824C247.465 65.1984 254.474 64.1002 256.56 63.9268C261.769 63.4933 266.746 66.1463 267.747 68.0942C267.956 68.4988 268.17 68.9901 268.397 69.5161C269.481 71.9899 270.959 75.3885 274.547 76.0301C274.63 76.0736 274.722 76.0975 274.817 76.0997C274.911 76.1019 275.004 76.0825 275.089 76.043C275.174 76.0035 275.248 75.9451 275.305 75.8724C275.362 75.7998 275.401 75.7151 275.418 75.6253C275.434 75.5354 275.429 75.443 275.402 75.3555C275.375 75.268 275.327 75.188 275.262 75.1221C275.197 75.0561 275.116 75.0061 275.027 74.976C274.938 74.946 274.843 74.9368 274.75 74.9493L274.756 74.9319Z" fill="#263238"/>
<path d="M243.573 85.3937H243.71C243.852 85.352 243.972 85.261 244.048 85.1382C244.124 85.0153 244.15 84.8695 244.122 84.729C244.122 84.729 243.979 84.151 243.83 83.1915C243.801 83.0496 243.718 82.9234 243.598 82.8377C243.477 82.7521 243.328 82.7134 243.18 82.7292C243.107 82.7397 243.036 82.7643 242.973 82.8015C242.909 82.8387 242.854 82.8877 242.81 82.9458C242.766 83.0039 242.735 83.0698 242.717 83.1398C242.7 83.2098 242.697 83.2824 242.709 83.3534C242.864 84.3591 243.013 84.9602 243.025 84.9891C243.057 85.1062 243.128 85.2095 243.227 85.2828C243.327 85.3561 243.448 85.3952 243.573 85.3937Z" fill="#263238"/>
<path d="M274.542 79.4981L268.486 75.1689C268.34 74.5206 268.141 73.8846 267.89 73.2672C267.294 71.6142 264.642 67.1867 259.999 66.5624C257.293 66.1725 254.529 66.5166 252.013 67.5566C251.92 67.567 251.83 67.5986 251.752 67.6487C251.674 67.6988 251.609 67.766 251.563 67.845C251.517 67.924 251.49 68.0124 251.486 68.1031C251.481 68.1939 251.499 68.2843 251.537 68.3672C251.576 68.4501 251.633 68.5231 251.706 68.5802C251.779 68.6373 251.865 68.677 251.956 68.696C252.048 68.715 252.143 68.7128 252.234 68.6896C252.324 68.6664 252.408 68.6228 252.478 68.5623C254.802 67.6009 257.357 67.2866 259.856 67.6549C263.927 68.1982 266.317 72.2789 266.835 73.6429C267.089 74.2326 267.277 74.8468 267.395 75.4752C267.398 75.5605 267.421 75.6442 267.461 75.7201C267.501 75.7961 267.558 75.8625 267.628 75.9145L273.874 80.3824C273.969 80.4544 274.087 80.4931 274.208 80.4922C274.32 80.4794 274.427 80.4357 274.515 80.3662C274.603 80.2967 274.668 80.2044 274.704 80.1C274.74 79.9957 274.744 79.8836 274.716 79.777C274.688 79.6703 274.63 79.5736 274.547 79.4981H274.542Z" fill="#263238"/>
<path d="M247.686 83.1049C246.702 79.8854 246.071 75.2787 248.651 71.6027C249.24 70.763 249.983 70.036 250.844 69.4583C250.921 69.3609 250.963 69.2426 250.965 69.1204C250.968 68.9982 250.93 68.8784 250.858 68.7782C250.786 68.678 250.683 68.6026 250.564 68.5628C250.444 68.523 250.315 68.5208 250.195 68.5566C249.221 69.2107 248.381 70.0337 247.715 70.9842C245.475 74.1748 245.087 78.4982 246.595 83.417C247.62 86.7694 242.679 88.619 242.626 88.6594C242.491 88.7169 242.383 88.8208 242.322 88.951C242.262 89.0812 242.253 89.2286 242.298 89.3646C242.341 89.4675 242.415 89.556 242.509 89.6196C242.603 89.6831 242.714 89.719 242.828 89.723C242.897 89.7229 242.966 89.7111 243.031 89.6883C245.105 88.9253 248.747 86.5729 247.686 83.1049Z" fill="#263238"/>
<path d="M274.071 83.6656C274.011 83.6251 268.033 79.793 266.179 77.4463C265.136 76.1284 265.023 75.6776 264.904 75.2036C264.754 74.5856 264.492 73.9984 264.129 73.4696C262.937 71.5622 260.053 69.5566 255.976 70.1866C252.042 70.7993 249.694 73.7529 249.694 78.0879C249.694 79.8739 249.837 81.4171 249.974 82.9142C250.199 84.7417 250.257 86.585 250.147 88.4225C249.885 91.4339 245.594 92.5321 245.516 92.5494C245.383 92.5826 245.267 92.6617 245.189 92.7719C245.112 92.8821 245.079 93.0159 245.095 93.1482C245.112 93.2806 245.178 93.4025 245.281 93.4912C245.383 93.5799 245.516 93.6293 245.653 93.6303H245.79C246.005 93.5783 250.946 92.3356 251.274 88.5265C251.392 86.6258 251.336 84.7186 251.107 82.8275C250.97 81.3593 250.832 79.8392 250.832 78.0994C250.832 74.2962 252.769 71.8108 256.155 71.2848C259.683 70.7415 262.115 72.4408 263.164 74.0592C263.469 74.4951 263.686 74.9836 263.801 75.4984C263.944 76.0764 264.093 76.6544 265.28 78.1457C267.246 80.6368 273.194 84.4516 273.445 84.6135C273.504 84.6843 273.579 84.7406 273.664 84.7779C273.75 84.8152 273.843 84.8324 273.937 84.8281C274.031 84.8238 274.122 84.7981 274.203 84.7531C274.285 84.7082 274.354 84.6452 274.406 84.5693C274.458 84.4934 274.49 84.4067 274.501 84.3164C274.512 84.226 274.5 84.1345 274.467 84.0492C274.435 83.964 274.382 83.8874 274.313 83.8258C274.244 83.7641 274.161 83.7191 274.071 83.6945V83.6656Z" fill="#263238"/>
<path d="M257.103 83.9256L256.816 83.5788C254.623 80.9316 253.419 79.475 255.207 76.6428C255.833 75.6487 256.536 75.1574 257.281 75.192C258.39 75.2325 259.695 76.4116 260.613 78.1861C261.132 79.1918 262.478 80.7466 264.731 82.9488C264.844 83.006 264.972 83.0269 265.098 83.0083C265.224 82.9897 265.34 82.9327 265.43 82.8456C265.519 82.7585 265.578 82.6458 265.597 82.524C265.616 82.4022 265.595 82.2776 265.536 82.1685C262.872 79.5733 261.96 78.3017 261.626 77.6948C260.494 75.4984 258.891 74.1516 257.329 74.0881C256.507 74.0592 255.303 74.3713 254.242 76.0706C252.037 79.5791 253.646 81.5558 255.928 84.284L256.215 84.6308C258.599 87.5208 266.662 93.9539 267.002 94.2256C267.104 94.3085 267.233 94.3535 267.366 94.3528C267.476 94.3401 267.581 94.2978 267.668 94.2305C267.755 94.1632 267.82 94.0737 267.857 93.9721C267.895 93.8705 267.902 93.7608 267.878 93.6554C267.854 93.5501 267.801 93.4533 267.723 93.3759C267.64 93.295 259.415 86.7289 257.103 83.9256Z" fill="#263238"/>
<path d="M267.634 84.1395C267.52 84.0868 267.392 84.0703 267.268 84.0925C267.144 84.1147 267.031 84.1743 266.944 84.2629C266.858 84.3515 266.802 84.4645 266.786 84.5856C266.769 84.7068 266.793 84.8298 266.853 84.9371C269.237 87.1393 271.43 88.9831 271.454 89.012C271.558 89.0957 271.688 89.1426 271.824 89.145C271.905 89.1454 271.986 89.1285 272.06 89.0956C272.134 89.0626 272.2 89.0144 272.253 88.9542C272.345 88.8417 272.39 88.7001 272.38 88.5569C272.37 88.4138 272.306 88.2793 272.199 88.1797C272.199 88.1797 269.988 86.3243 267.634 84.1395Z" fill="#263238"/>
<path d="M269.946 90.6131C269.869 90.5553 262.395 84.8331 260.529 82.4922C259.411 81.0634 258.537 79.4688 257.943 77.77C257.924 77.6982 257.891 77.6309 257.844 77.572C257.798 77.5131 257.74 77.4639 257.674 77.4273C257.608 77.3907 257.534 77.3675 257.458 77.3591C257.383 77.3506 257.306 77.3571 257.233 77.3782C257.16 77.3992 257.092 77.4344 257.033 77.4815C256.974 77.5287 256.926 77.5869 256.891 77.6527C256.856 77.7184 256.835 77.7904 256.829 77.8641C256.824 77.9379 256.833 78.0121 256.858 78.0821C257.48 79.915 258.417 81.6328 259.629 83.1627C261.578 85.6366 268.933 91.2547 269.243 91.4801C269.344 91.554 269.468 91.5945 269.595 91.5957C269.68 91.5942 269.764 91.5748 269.841 91.5389C269.919 91.503 269.987 91.4514 270.042 91.3877C270.128 91.2703 270.167 91.1258 270.149 90.9824C270.131 90.8391 270.059 90.7074 269.946 90.6131Z" fill="#263238"/>
<path d="M257.549 92.7401C255.404 94.0233 254.921 98.1675 254.903 98.3409C254.894 98.4852 254.941 98.6276 255.035 98.7399C255.129 98.8522 255.262 98.9264 255.41 98.9479H255.469C255.609 98.9485 255.744 98.8984 255.848 98.8075C255.951 98.7166 256.016 98.5914 256.03 98.4565C256.149 97.4104 256.751 94.5088 258.145 93.6765C259.284 93.0002 261.721 95.2487 262.764 96.4393C262.863 96.5469 263 96.6148 263.148 96.6298C263.295 96.6448 263.444 96.6057 263.563 96.5203C263.673 96.4237 263.742 96.2908 263.756 96.1475C263.771 96.0043 263.729 95.861 263.641 95.7457C263.253 95.2949 259.856 91.376 257.549 92.7401Z" fill="#263238"/>
<path d="M253.538 86.3301C253.397 86.373 253.277 86.4654 253.202 86.5894C253.127 86.7133 253.103 86.8599 253.133 87.0005C253.516 88.7645 253.37 90.5981 252.71 92.2835C252.145 93.8098 250.979 95.0567 249.468 95.7515C249.364 95.8122 249.282 95.9021 249.232 96.0093C249.183 96.1164 249.168 96.2357 249.19 96.3512C249.212 96.4667 249.27 96.5729 249.355 96.6558C249.441 96.7386 249.551 96.7942 249.67 96.815C249.737 96.8142 249.804 96.8025 249.867 96.7803C250.759 96.3881 251.563 95.8288 252.232 95.1344C252.901 94.4401 253.422 93.6244 253.765 92.7343C254.525 90.8323 254.686 88.7546 254.23 86.7636C254.194 86.6189 254.102 86.4932 253.974 86.4124C253.845 86.3317 253.689 86.3022 253.538 86.3301Z" fill="#263238"/>
<path d="M251.715 57.7538C255.225 56.933 260.541 56.4244 265.953 58.6728C266.022 58.7051 266.097 58.7209 266.174 58.719C266.293 58.7005 266.403 58.6472 266.491 58.5663C266.578 58.4853 266.638 58.3806 266.663 58.2659C266.687 58.1511 266.675 58.0319 266.628 57.9239C266.581 57.816 266.502 57.7244 266.4 57.6613C260.702 55.2973 255.124 55.8233 251.446 56.6845C251.353 56.6779 251.259 56.6928 251.172 56.7281C251.086 56.7634 251.009 56.818 250.948 56.8875C250.888 56.9571 250.845 57.0395 250.823 57.1281C250.802 57.2168 250.802 57.3091 250.824 57.3976C250.846 57.4861 250.89 57.5682 250.951 57.6373C251.012 57.7064 251.089 57.7606 251.176 57.7953C251.263 57.83 251.357 57.8443 251.45 57.8371C251.544 57.8299 251.634 57.8014 251.715 57.7538Z" fill="#263238"/>
<path d="M247.739 59.0081C247.822 59.0069 247.903 58.9892 247.978 58.956C248.46 58.7391 248.953 58.5462 249.456 58.378C249.557 58.3047 249.631 58.2021 249.668 58.0852C249.705 57.9683 249.703 57.843 249.662 57.7273C249.621 57.6116 249.543 57.5116 249.439 57.4416C249.336 57.3716 249.212 57.3352 249.086 57.3376C248.545 57.5018 248.014 57.6948 247.495 57.9156C247.397 57.9812 247.322 58.0737 247.278 58.1812C247.235 58.2887 247.226 58.4063 247.253 58.5188C247.279 58.6313 247.339 58.7337 247.426 58.8126C247.513 58.8916 247.622 58.9435 247.739 58.9618V59.0081Z" fill="#263238"/>
<path d="M65.0654 191.624H29.6511C27.7189 191.624 26.1526 193.143 26.1526 195.017V214.9C26.1526 216.774 27.7189 218.293 29.6511 218.293H65.0654C66.9976 218.293 68.5639 216.774 68.5639 214.9V195.017C68.5639 193.143 66.9976 191.624 65.0654 191.624Z" fill="white" stroke="#263238" stroke-linecap="round" stroke-linejoin="round"/>
<path d="M32.1125 198.294L46.0351 205.947C46.8575 206.401 47.7928 206.628 48.7388 206.601C49.6849 206.575 50.6052 206.296 51.3991 205.797L68.5401 195.017" stroke="#263238" stroke-linecap="round" stroke-linejoin="round"/>
<path d="M26.1526 195.017L29.7703 197.006" stroke="#263238" stroke-linecap="round" stroke-linejoin="round"/>
<path d="M75.3167 201.572H39.9023C37.9701 201.572 36.4038 203.091 36.4038 204.965V224.848C36.4038 226.722 37.9701 228.241 39.9023 228.241H75.3167C77.2488 228.241 78.8152 226.722 78.8152 224.848V204.965C78.8152 203.091 77.2488 201.572 75.3167 201.572Z" fill="#7E57C2" stroke="#263238" stroke-linecap="round" stroke-linejoin="round"/>
<path d="M68.3254 211.542L78.821 204.959" stroke="#263238" stroke-linecap="round" stroke-linejoin="round"/>
<path d="M41.6604 207.849L56.2862 215.895C57.1091 216.348 58.0448 216.573 58.9908 216.546C59.9368 216.518 60.8568 216.239 61.6502 215.739L65.7269 213.184" stroke="#263238" stroke-linecap="round" stroke-linejoin="round"/>
<path d="M36.4038 204.959L40.0394 206.959" stroke="#263238" stroke-linecap="round" stroke-linejoin="round"/>
<path d="M82.9999 206.619C84.3385 203.508 82.8232 199.933 79.6153 198.635C76.4074 197.337 72.7218 198.807 71.3832 201.917C70.0446 205.028 71.56 208.603 74.7678 209.901C77.9757 211.199 81.6613 209.73 82.9999 206.619Z" fill="#263238" stroke="#263238" stroke-linecap="round" stroke-linejoin="round"/>
<path d="M74.6968 202.624C74.9101 202.651 75.126 202.598 75.3001 202.475C75.4742 202.353 75.5931 202.17 75.6325 201.965H76.2285V207.213H75.3762V203.208H74.7206L74.6968 202.624Z" fill="white"/>
<path d="M77.1643 203.225C77.1643 202.892 77.3006 202.573 77.5431 202.338C77.7857 202.103 78.1146 201.971 78.4576 201.971C78.8006 201.971 79.1296 202.103 79.3721 202.338C79.6147 202.573 79.7509 202.892 79.7509 203.225V205.953C79.7509 206.286 79.6147 206.605 79.3721 206.84C79.1296 207.075 78.8006 207.207 78.4576 207.207C78.1146 207.207 77.7857 207.075 77.5431 206.84C77.3006 206.605 77.1643 206.286 77.1643 205.953V203.225ZM78.0166 206.005C78.0166 206.381 78.1894 206.525 78.4576 206.525C78.7258 206.525 78.8987 206.381 78.8987 206.005V203.173C78.8987 202.797 78.7318 202.653 78.4576 202.653C78.1835 202.653 78.0166 202.797 78.0166 203.173V206.005Z" fill="white"/>
<path d="M68.862 126.709V149.251C68.862 150.018 68.548 150.753 67.9892 151.295C67.4303 151.837 66.6723 152.141 65.882 152.141H29.073C28.2827 152.141 27.5247 151.837 26.9658 151.295C26.407 150.753 26.093 150.018 26.093 149.251V126.709C26.093 125.943 26.407 125.208 26.9658 124.666C27.5247 124.124 28.2827 123.819 29.073 123.819H65.8581C66.2515 123.816 66.6416 123.889 67.0059 124.033C67.3702 124.176 67.7015 124.389 67.9807 124.657C68.26 124.926 68.4816 125.246 68.6329 125.598C68.7841 125.95 68.862 126.328 68.862 126.709Z" fill="#7E57C2" stroke="#263238" stroke-linecap="round" stroke-linejoin="round"/>
<path d="M62.8542 129.801C64.0984 129.801 65.1071 128.823 65.1071 127.617C65.1071 126.41 64.0984 125.432 62.8542 125.432C61.61 125.432 60.6013 126.41 60.6013 127.617C60.6013 128.823 61.61 129.801 62.8542 129.801Z" fill="white" stroke="#263238" stroke-linecap="round" stroke-linejoin="round"/>
<path d="M68.8619 132.807H26.0691V139.414H68.8619V132.807Z" fill="#263238" stroke="#263238" stroke-linecap="round" stroke-linejoin="round"/>
<path d="M78.6721 135.662V158.204C78.6721 158.971 78.3582 159.706 77.7993 160.248C77.2404 160.79 76.4825 161.094 75.6921 161.094H38.907C38.1167 161.094 37.3587 160.79 36.7998 160.248C36.241 159.706 35.927 158.971 35.927 158.204V135.662C35.927 134.896 36.241 134.161 36.7998 133.619C37.3587 133.077 38.1167 132.772 38.907 132.772H75.6921C76.4825 132.772 77.2404 133.077 77.7993 133.619C78.3582 134.161 78.6721 134.896 78.6721 135.662Z" fill="white" stroke="#263238" stroke-linecap="round" stroke-linejoin="round"/>
<path d="M72.6882 138.755C73.9324 138.755 74.9411 137.777 74.9411 136.57C74.9411 135.363 73.9324 134.385 72.6882 134.385C71.444 134.385 70.4353 135.363 70.4353 136.57C70.4353 137.777 71.444 138.755 72.6882 138.755Z" fill="white" stroke="#263238" stroke-linecap="round" stroke-linejoin="round"/>
<path d="M78.6959 141.76H35.9031V148.367H78.6959V141.76Z" fill="#263238" stroke="#263238" stroke-linecap="round" stroke-linejoin="round"/>
<path d="M73.9635 63.5107H27.6365V90.538H73.9635V63.5107Z" fill="white" stroke="#263238" stroke-linecap="round" stroke-linejoin="round"/>
<path d="M70.3458 66.3198H31.2542V87.7289H70.3458V66.3198Z" fill="#7E57C2" stroke="#263238" stroke-linecap="round" stroke-linejoin="round"/>
<path d="M50.8031 84.3938C54.9999 84.3938 58.4021 81.0943 58.4021 77.0243C58.4021 72.9542 54.9999 69.6548 50.8031 69.6548C46.6063 69.6548 43.2041 72.9542 43.2041 77.0243C43.2041 81.0943 46.6063 84.3938 50.8031 84.3938Z" fill="white" stroke="#263238" stroke-linecap="round" stroke-linejoin="round"/>
<path d="M76.5334 63.8967L30.4592 59.2083L27.551 86.088L73.6251 90.7764L76.5334 63.8967Z" fill="white" stroke="#263238" stroke-linecap="round" stroke-linejoin="round"/>
<path d="M72.6392 66.325L33.761 62.3688L31.4573 83.661L70.3355 87.6172L72.6392 66.325Z" fill="#7E57C2" stroke="#263238" stroke-linecap="round" stroke-linejoin="round"/>
<path d="M59.6001 75.7585C59.757 74.3086 59.4671 72.8462 58.7669 71.5562C58.0667 70.2661 56.9876 69.2065 55.6663 68.5113C54.345 67.8161 52.8408 67.5166 51.3439 67.6506C49.847 67.7846 48.4248 68.3462 47.2571 69.2643C46.0894 70.1824 45.2287 71.4157 44.7839 72.8083C44.3391 74.2009 44.3302 75.6901 44.7582 77.0875C45.1863 78.485 46.0322 79.728 47.1888 80.6592C48.3455 81.5903 49.7609 82.1679 51.2561 82.3188C53.2594 82.521 55.2635 81.9436 56.8281 80.7135C58.3927 79.4833 59.3897 77.7012 59.6001 75.7585Z" fill="white" stroke="#263238" stroke-linecap="round" stroke-linejoin="round"/>
<path d="M81.3392 65.3532L37.1733 51.7908L28.7605 77.5572L72.9264 91.1196L81.3392 65.3532Z" fill="white" stroke="#263238" stroke-linecap="round" stroke-linejoin="round"/>
<path d="M77.0216 66.9739L39.7537 55.5297L33.0896 75.94L70.3576 87.3842L77.0216 66.9739Z" fill="#7E57C2" stroke="#263238" stroke-linecap="round" stroke-linejoin="round"/>
<path d="M62.3 73.6835C62.7534 72.2938 62.7718 70.8049 62.3526 69.4051C61.9335 68.0053 61.0958 66.7575 59.9454 65.8194C58.795 64.8814 57.3835 64.2952 55.8896 64.1352C54.3957 63.9751 52.8864 64.2482 51.5526 64.9201C50.2187 65.5919 49.1203 66.6323 48.3961 67.9095C47.672 69.1868 47.3547 70.6437 47.4844 72.0959C47.6141 73.5481 48.1849 74.9303 49.1246 76.0679C50.0644 77.2054 51.3309 78.0472 52.764 78.4866C54.6853 79.0727 56.7679 78.8962 58.5553 77.9959C60.3427 77.0956 61.6893 75.5448 62.3 73.6835Z" fill="white" stroke="#263238" stroke-linecap="round" stroke-linejoin="round"/>
<path d="M65.7599 105.404C71.5309 104.132 75.1455 98.563 73.8333 92.9663C72.5211 87.3696 66.779 83.8641 61.008 85.1367C55.2369 86.4093 51.6223 91.978 52.9345 97.5747C54.2468 103.171 59.9888 106.677 65.7599 105.404Z" fill="white" stroke="#263238" stroke-linecap="round" stroke-linejoin="round"/>
<path d="M56.3101 88.7462H55.136" stroke="#263238" stroke-linecap="round" stroke-linejoin="round"/>
<path d="M55.0466 90.3241H53.9619" stroke="#263238" stroke-linecap="round" stroke-linejoin="round"/>
<path d="M54.3254 92.3413H53.3301" stroke="#263238" stroke-linecap="round" stroke-linejoin="round"/>
<path d="M54.0513 96.4625H52.8772" stroke="#263238" stroke-linecap="round" stroke-linejoin="round"/>
<path d="M71.7988 102.942C76.1609 99.0633 76.4545 92.4893 72.4546 88.259C68.4547 84.0287 61.676 83.7439 57.314 87.623C52.9519 91.5021 52.6583 98.0761 56.6582 102.306C60.6581 106.537 67.4368 106.821 71.7988 102.942Z" fill="white" stroke="#263238" stroke-linecap="round" stroke-linejoin="round"/>
<path d="M65.7722 102.718C70.0119 102.068 72.9057 98.2081 72.2357 94.0964C71.5657 89.9848 67.5857 87.1784 63.346 87.8282C59.1064 88.4779 56.2126 92.3378 56.8825 96.4494C57.5525 100.561 61.5326 103.367 65.7722 102.718Z" fill="white" stroke="#263238" stroke-width="2" stroke-linecap="round" stroke-linejoin="round"/>
<path d="M64.0342 90.7461V90.0988H65.1845V90.7461C66.1798 90.9426 66.6924 91.6825 66.6924 92.8616V93.1333H65.3633V92.7749C65.3633 92.1564 65.107 91.9195 64.66 91.9195C64.213 91.9195 63.9567 92.1564 63.9567 92.7749C63.9567 94.5609 66.7043 94.6476 66.7043 97.1215C66.7043 98.2775 66.1798 99.052 65.1845 99.2543V99.8843H64.0342V99.2543C63.027 99.052 62.5144 98.3006 62.5144 97.1215V96.5435H63.8435V97.2255C63.8435 97.844 64.1236 98.0694 64.5706 98.0694C65.0176 98.0694 65.2977 97.844 65.2977 97.2255C65.2977 95.4453 62.5502 95.3586 62.5502 92.8789C62.58 91.6709 63.0508 90.9253 64.0342 90.7461Z" fill="#263238"/>
<path d="M69.312 96.886C75.0593 95.5159 78.5731 89.8869 77.1604 84.3132C75.7476 78.7396 69.9433 75.3319 64.1961 76.7019C58.4489 78.072 54.935 83.701 56.3478 89.2746C57.7605 94.8483 63.5648 98.256 69.312 96.886Z" fill="white" stroke="#263238" stroke-linecap="round" stroke-linejoin="round"/>
<path d="M59.6834 80.267H58.5093" stroke="#263238" stroke-linecap="round" stroke-linejoin="round"/>
<path d="M58.4199 81.8448H57.3352" stroke="#263238" stroke-linecap="round" stroke-linejoin="round"/>
<path d="M57.6927 83.8563H56.7034" stroke="#263238" stroke-linecap="round" stroke-linejoin="round"/>
<path d="M57.4246 87.9774H56.2505" stroke="#263238" stroke-linecap="round" stroke-linejoin="round"/>
<path d="M75.8431 93.7871C79.8338 89.5487 79.5261 82.9753 75.1556 79.1051C70.7852 75.2349 64.0071 75.5334 60.0164 79.7718C56.0257 84.0102 56.3335 90.5836 60.7039 94.4538C65.0743 98.324 71.8524 98.0255 75.8431 93.7871Z" fill="white" stroke="#263238" stroke-linecap="round" stroke-linejoin="round"/>
<path d="M75.1156 89.6432C76.745 85.7922 74.8468 81.3893 70.8759 79.8091C66.9049 78.2289 62.3649 80.0697 60.7355 83.9208C59.1061 87.7718 61.0043 92.1747 64.9752 93.7549C68.9462 95.3351 73.4862 93.4942 75.1156 89.6432Z" fill="white" stroke="#263238" stroke-width="2" stroke-linecap="round" stroke-linejoin="round"/>
<path d="M67.4075 82.2321V81.5847H68.5399V82.2321C69.5412 82.4286 70.0478 83.1684 70.0478 84.3476V84.6192H68.7187V84.2609C68.7187 83.6424 68.4684 83.4054 68.0214 83.4054C67.5744 83.4054 67.3181 83.6424 67.3181 84.2609C67.3181 86.0469 70.0597 86.1336 70.0597 88.6074C70.0597 89.7634 69.5412 90.5379 68.5399 90.7402V91.3703H67.4075V90.746C66.3943 90.5437 65.8877 89.7923 65.8877 88.6132V88.0352H67.2108V88.7172C67.2108 89.3357 67.4969 89.5611 67.9439 89.5611C68.3909 89.5611 68.671 89.3357 68.671 88.7172C68.671 86.937 65.9235 86.8503 65.9235 84.3707C65.9235 83.1858 66.4241 82.4402 67.4075 82.2321Z" fill="#263238"/>
<path d="M117.114 161.551C117.114 161.551 117.71 164.73 118.455 165.886C119.2 167.042 121.286 168.343 121.435 170.799C121.522 172.436 121.522 174.075 121.435 175.712C121.435 175.712 127.842 179.469 133.057 182.07C136.169 183.627 139.409 184.932 142.742 185.972L141.252 197.965C141.252 197.965 125.458 187.272 121.733 183.949C118.008 180.625 114.581 176.868 113.985 176.724C113.389 176.579 108.621 170.221 108.472 169.499C108.323 168.776 110.707 167.331 111.452 167.476C112.197 167.62 113.091 165.886 113.538 164.441C113.985 162.996 113.985 161.262 115.028 161.262C115.733 161.276 116.433 161.373 117.114 161.551Z" fill="white" stroke="#263238" stroke-linecap="round" stroke-linejoin="round"/>
<path d="M95.4792 161.69L113.782 179.694C114.049 179.957 114.402 180.122 114.78 180.161C115.158 180.2 115.539 180.111 115.856 179.908L120.565 176.891C120.763 176.764 120.931 176.595 121.056 176.399C121.18 176.202 121.259 175.981 121.287 175.752C121.315 175.522 121.291 175.29 121.217 175.07C121.142 174.851 121.02 174.65 120.857 174.481L104.169 157.141C103.946 156.908 103.657 156.746 103.338 156.675C103.019 156.604 102.686 156.627 102.381 156.742L96.0633 159.095C95.8098 159.189 95.5844 159.343 95.4075 159.543C95.2305 159.743 95.1076 159.982 95.0497 160.239C94.9917 160.497 95.0007 160.764 95.0757 161.017C95.1506 161.27 95.2893 161.501 95.4792 161.69Z" fill="#263238" stroke="#263238" stroke-linecap="round" stroke-linejoin="round"/>
<path d="M133.415 220.443C141.135 223.025 149.31 224.079 157.458 223.544C165.605 223.009 173.559 220.895 180.85 217.328C181.232 212.184 181.482 205.982 181.482 203.728C181.482 199.826 184.909 185.376 186.697 177.573C188.485 169.77 186.101 161.1 184.015 152.864C181.929 144.627 173.734 138.992 173.734 138.992L153.47 148.384C153.47 148.384 138.272 161.534 136.931 168.614C135.59 175.695 140.954 182.197 140.954 183.787C140.954 185.116 135.358 210.698 133.415 220.443Z" fill="#7E57C2" stroke="#263238" stroke-linecap="round" stroke-linejoin="round"/>
<path d="M174.115 183.908C174.115 183.908 181.798 178.394 182.412 178.093" stroke="#263238" stroke-linecap="round" stroke-linejoin="round"/>
<path d="M172.578 186.44L181.029 184.654" stroke="#263238" stroke-linecap="round" stroke-linejoin="round"/>
<path d="M150.341 137.564L152.129 141.177L168.221 130.773L163.9 124.993L149.596 136.553L150.341 137.564Z" fill="#263238" stroke="#263238" stroke-linecap="round" stroke-linejoin="round"/>
<path d="M166.224 129.27L150.657 139.876C150.228 140.168 149.915 140.593 149.77 141.08C149.625 141.568 149.656 142.09 149.858 142.558L153.023 149.945C153.133 150.203 153.3 150.434 153.511 150.623C153.722 150.813 153.973 150.956 154.247 151.042C154.52 151.128 154.81 151.156 155.096 151.123C155.381 151.09 155.656 150.998 155.902 150.852L173.96 140.13C174.197 139.99 174.4 139.803 174.558 139.583C174.715 139.362 174.824 139.112 174.877 138.848C174.929 138.585 174.925 138.313 174.864 138.051C174.802 137.789 174.686 137.543 174.521 137.327L168.668 129.645C168.389 129.289 167.979 129.051 167.524 128.981C167.069 128.911 166.603 129.015 166.224 129.27Z" fill="#7E57C2" stroke="#263238" stroke-linecap="round" stroke-linejoin="round"/>
<path d="M127.288 106.075C127.288 106.075 127.8 113.011 129.338 115.999C130.876 118.987 133.433 121.958 132.664 123.195C131.895 124.432 130.614 127.414 132.407 128.657C133.349 129.379 134.536 129.733 135.733 129.651C135.733 129.651 140.161 140.055 143.213 140.633C148.511 141.679 156.718 132.374 157.517 132.125C158.316 131.877 164.937 127.409 165.45 121.721C165.962 116.034 162.887 107.849 160.33 106.832C157.773 105.815 152.397 107.075 147.814 105.341C143.231 103.607 128.313 99.3698 127.288 106.075Z" fill="white" stroke="#263238" stroke-linecap="round" stroke-linejoin="round"/>
<path d="M135.477 118.49L136.246 120.721C137.104 120.914 138.003 120.851 138.824 120.542C139.646 120.233 140.353 119.691 140.853 118.987" stroke="#263238" stroke-linecap="round" stroke-linejoin="round"/>
<path d="M133.575 115.063C133.575 115.063 134.899 112.843 139.237 114.011" stroke="#263238" stroke-linecap="round" stroke-linejoin="round"/>
<path d="M137.676 131.206C138.53 131.138 139.351 130.858 140.06 130.391" stroke="#263238" stroke-linecap="round" stroke-linejoin="round"/>
<path d="M125.5 91.6766C125.5 91.6766 120.38 96.8786 121.149 101.11C121.918 105.341 127.544 109.3 130.613 109.3C133.683 109.3 135.477 108.554 139.315 108.554C143.153 108.554 147.248 111.282 148.786 112.774C150.323 114.265 152.361 116.242 153.649 114.265C154.936 112.288 154.161 110.543 159.275 111.034C164.389 111.525 163.37 119.224 161.582 122.946C159.794 126.669 158.512 128.657 156.462 128.657C154.412 128.657 151.599 127.414 153.136 129.651C154.674 131.888 159.275 137.096 169.771 135.108C180.266 133.119 183.586 124.704 183.586 119.721C183.586 114.739 180.01 107.312 177.447 102.104C174.884 96.896 169.771 85.9718 157.231 82.498C144.691 79.0242 130.613 83.4864 125.5 91.6766Z" fill="#263238" stroke="#263238" stroke-linecap="round" stroke-linejoin="round"/>
<path d="M153.685 116.109C153.685 116.109 153.446 111.207 156.456 110.271C159.466 109.334 162.476 111.092 162.601 114.594C162.726 118.097 162.237 121.715 160.914 123.004C159.591 124.293 155.973 123.235 155.973 123.235" fill="white"/>
<path d="M153.685 116.109C153.685 116.109 153.446 111.207 156.456 110.271C159.466 109.334 162.476 111.092 162.601 114.594C162.726 118.097 162.237 121.715 160.914 123.004C159.591 124.293 155.973 123.235 155.973 123.235" stroke="#263238" stroke-linecap="round" stroke-linejoin="round"/>
<path d="M164.794 152.014C164.794 152.014 157.493 157.216 156.003 163.574C154.513 169.932 150.937 187.995 150.937 187.995C150.937 187.995 148.553 187.706 148.553 188.284C148.432 189.024 148.232 189.75 147.957 190.451C147.957 190.451 146.02 190.451 145.871 191.174C145.722 191.896 129.779 183.949 125.756 181.348C121.733 178.747 116.667 175.134 115.773 173.978C114.023 171.793 112.132 169.717 110.111 167.765C108.472 166.32 105.194 164.297 104.598 163.863C104.002 163.43 103.108 159.673 101.767 160.251C100.426 160.829 100.724 163.43 101.32 164.441C101.916 165.453 104.3 169.643 104.3 169.643C104.3 169.643 99.234 170.077 98.191 170.799C97.148 171.522 96.552 173.978 97.744 174.845C98.936 175.712 101.618 176.001 101.618 176.001C101.618 176.001 102.363 179.614 103.853 180.625C105.343 181.637 107.876 182.648 109.217 183.226C110.558 183.804 115.177 183.949 115.177 183.949C115.177 183.949 121.435 190.74 125.756 194.931C130.077 199.121 147.063 210.97 149.596 211.837C152.129 212.704 155.109 210.826 156.152 209.381C157.195 207.936 174.628 184.093 178.8 176.146" fill="white"/>
<path d="M164.794 152.014C164.794 152.014 157.493 157.216 156.003 163.574C154.513 169.932 150.937 187.995 150.937 187.995C150.937 187.995 148.553 187.706 148.553 188.284C148.432 189.024 148.232 189.75 147.957 190.451C147.957 190.451 146.02 190.451 145.871 191.174C145.722 191.896 129.779 183.949 125.756 181.348C121.733 178.747 116.667 175.134 115.773 173.978C114.023 171.793 112.132 169.717 110.111 167.765C108.472 166.32 105.194 164.297 104.598 163.863C104.002 163.43 103.108 159.673 101.767 160.251C100.426 160.829 100.724 163.43 101.32 164.441C101.916 165.453 104.3 169.643 104.3 169.643C104.3 169.643 99.234 170.077 98.191 170.799C97.148 171.522 96.552 173.978 97.744 174.845C98.936 175.712 101.618 176.001 101.618 176.001C101.618 176.001 102.363 179.614 103.853 180.625C105.343 181.637 107.876 182.648 109.217 183.226C110.558 183.804 115.177 183.949 115.177 183.949C115.177 183.949 121.435 190.74 125.756 194.931C130.077 199.121 147.063 210.97 149.596 211.837C152.129 212.704 155.109 210.826 156.152 209.381C157.195 207.936 174.628 184.093 178.8 176.146" stroke="#263238" stroke-linecap="round" stroke-linejoin="round"/>
<path d="M164.794 152.014C164.794 152.014 157.493 157.216 156.003 163.574C154.513 169.932 150.937 187.995 150.937 187.995C150.937 187.995 148.553 187.706 148.553 188.284C148.432 189.024 148.232 189.75 147.957 190.451C147.957 190.451 146.02 190.451 145.871 191.174C145.799 191.515 142.247 189.937 138.075 187.902L131.478 199.618C138.183 204.71 147.742 211.178 149.596 211.837C152.129 212.704 155.109 210.826 156.152 209.381C157.195 207.936 175.45 183.579 179.992 175.279" fill="#7E57C2"/>
<path d="M164.794 152.014C164.794 152.014 157.493 157.216 156.003 163.574C154.513 169.932 150.937 187.995 150.937 187.995C150.937 187.995 148.553 187.706 148.553 188.284C148.432 189.024 148.232 189.75 147.957 190.451C147.957 190.451 146.02 190.451 145.871 191.174C145.799 191.515 142.247 189.937 138.075 187.902L131.478 199.618C138.183 204.71 147.742 211.178 149.596 211.837C152.129 212.704 155.109 210.826 156.152 209.381C157.195 207.936 175.45 183.579 179.992 175.279" stroke="#263238" stroke-linecap="round" stroke-linejoin="round"/>
<path d="M116.667 162.996C116.667 162.996 114.73 168.053 113.836 168.487C112.942 168.92 112.048 168.776 111.452 167.475C110.856 166.175 112.793 162.129 112.793 162.129C112.793 162.129 113.389 160.25 115.177 160.25C116.965 160.25 117.114 161.551 117.114 161.551L116.667 162.996Z" fill="white" stroke="#263238" stroke-linecap="round" stroke-linejoin="round"/>
</svg>
