<svg width="119" height="123" viewBox="0 0 119 123" fill="none" xmlns="http://www.w3.org/2000/svg">
<path d="M105.761 18.1453L79.1446 39.2376C84.3191 44.9031 87.3715 51.8687 87.3715 59.3948C87.3715 68.8985 82.507 77.5077 74.6474 83.7338C68.0249 88.9818 59.2712 92.5457 49.5061 93.5356V101.959H68.4132V112.054H49.5061V122.5H36.7639V112.054H17.8568V101.959H36.7639V93.3496C27.643 92.1473 19.4823 88.6931 13.2211 83.7338C5.36449 77.5077 0.5 68.8985 0.5 59.3948C0.5 49.8911 5.36449 41.2843 13.2211 35.0559C21.0808 28.8274 31.9416 24.9749 43.9342 24.9749C53.8288 24.9749 62.9497 27.5965 70.2525 32.0096L97.272 10.5953H82.7899V0.5H118.5V29.5216H105.761V18.1453ZM65.6408 42.1932C60.087 37.792 52.411 35.0702 43.9342 35.0702C35.4575 35.0702 27.7845 37.792 22.2307 42.1932C16.6768 46.5968 13.2392 52.6773 13.2392 59.3948C13.2392 66.1123 16.6768 72.1952 22.2307 76.5964C27.7845 80.9976 35.4575 83.7218 43.9342 83.7218C52.411 83.7218 60.087 80.9976 65.6408 76.5964C71.1946 72.1952 74.6323 66.1123 74.6323 59.3948C74.6323 52.6773 71.1946 46.5968 65.6408 42.1932Z" fill="#6B44AA"/>
</svg>
