<svg width="352" height="373" viewBox="0 0 352 373" fill="none" xmlns="http://www.w3.org/2000/svg">
<path d="M116.569 117.323C110.937 120.859 105.143 124.037 99.4684 127.588C73.3429 143.791 51.8428 165.515 49.2028 198.794C47.2738 223.158 54.518 251.506 74.7439 265.606C79.7373 269.072 85.3096 271.495 91.1612 272.745C99.4121 274.528 108.149 273.827 116.569 273.312V117.323Z" fill="#2FBB18"/>
<path d="M237.847 82.6716H156.739C151.516 86.1237 146.62 90.1008 142.117 94.548H253.588C248.675 90.1148 243.408 86.1411 237.847 82.6716Z" fill="#2FBB18"/>
<path d="M234.052 80.4337C228.177 77.107 221.981 74.4585 215.572 72.5335C196.177 66.7819 176.965 70.6089 160.336 80.4337H234.052Z" fill="#2FBB18"/>
<path d="M281.6 129.312C274.563 117.243 265.947 106.292 256.01 96.786H180.837V283.771C186.45 285.762 192.197 287.303 198.028 288.381C236.354 294.886 279.235 280.421 294.103 239.488C307.43 202.808 300.805 161.971 281.6 129.312Z" fill="#2FBB18"/>
<path d="M176.225 96.786H139.906C138.409 98.3526 136.949 99.9689 135.527 101.635C131.292 106.513 126.468 110.777 121.18 114.317V273.073C134.319 272.543 147.466 273.924 160.252 277.176C165.665 278.549 170.945 280.384 176.225 282.204V96.786Z" fill="#2FBB18"/>
<g opacity="0.8">
<path d="M116.569 117.323C110.937 120.859 105.143 124.037 99.4684 127.588C73.3429 143.791 51.8428 165.515 49.2028 198.794C47.2738 223.158 54.518 251.506 74.7439 265.606C79.7373 269.072 85.3096 271.495 91.1612 272.745C99.4121 274.528 108.149 273.827 116.569 273.312V117.323Z" fill="white"/>
<path d="M237.847 82.6716H156.739C151.516 86.1237 146.62 90.1008 142.117 94.548H253.588C248.675 90.1148 243.408 86.1411 237.847 82.6716Z" fill="white"/>
<path d="M234.052 80.4337C228.177 77.107 221.981 74.4585 215.572 72.5335C196.177 66.7819 176.965 70.6089 160.336 80.4337H234.052Z" fill="white"/>
<path d="M281.6 129.312C274.563 117.243 265.947 106.292 256.01 96.786H180.837V283.771C186.45 285.762 192.197 287.303 198.028 288.381C236.354 294.886 279.235 280.421 294.103 239.488C307.43 202.808 300.805 161.971 281.6 129.312Z" fill="white"/>
<path d="M176.225 96.786H139.906C138.409 98.3526 136.949 99.9689 135.527 101.635C131.292 106.513 126.468 110.777 121.18 114.317V273.073C134.319 272.543 147.466 273.924 160.252 277.176C165.665 278.549 170.945 280.384 176.225 282.204V96.786Z" fill="white"/>
</g>
<path d="M173.437 305.748C230.588 305.748 276.918 302.468 276.918 298.422C276.918 294.377 230.588 291.097 173.437 291.097C116.287 291.097 69.9565 294.377 69.9565 298.422C69.9565 302.468 116.287 305.748 173.437 305.748Z" fill="#2FBB18"/>
<path opacity="0.5" d="M173.437 305.748C230.588 305.748 276.918 302.468 276.918 298.422C276.918 294.377 230.588 291.097 173.437 291.097C116.287 291.097 69.9565 294.377 69.9565 298.422C69.9565 302.468 116.287 305.748 173.437 305.748Z" fill="white"/>
<path d="M149.558 103.164H139.652V105.455V118.905V121.195H160.66V105.455H150.262L149.558 103.164Z" fill="#2FBB18"/>
<path d="M149.558 137.48H139.652V139.771V153.221V155.511H160.66V139.771H150.262L149.558 137.48Z" fill="#2FBB18"/>
<path d="M149.558 171.796H139.652V174.086V187.537V189.827H160.66V174.086H150.262L149.558 171.796Z" fill="#2FBB18"/>
<path d="M149.558 206.112H139.652V208.403V221.853V224.143H160.66V208.403H150.262L149.558 206.112Z" fill="#2FBB18"/>
<path d="M149.558 240.428H139.652V242.719V256.169V258.459H160.66V242.719H150.262L149.558 240.428Z" fill="#2FBB18"/>
<path d="M213.03 103.164H203.132V105.455V118.905V121.195H224.132V105.455H213.734L213.03 103.164Z" fill="#2FBB18"/>
<path d="M254.214 105.455L253.51 103.164H243.612V105.455V118.905V121.195H264.612V105.455H254.214Z" fill="#2FBB18"/>
<path d="M213.03 137.48H203.132V139.771V153.221V155.511H224.132V139.771H213.734L213.03 137.48Z" fill="#2FBB18"/>
<path d="M253.51 171.796H243.612V174.086V187.537V189.827H264.612V174.086H254.214L253.51 171.796Z" fill="#2FBB18"/>
<path d="M253.51 137.48H243.612V139.771V153.221V155.511H264.612V139.771H254.214L253.51 137.48Z" fill="#2FBB18"/>
<path d="M213.03 171.796H203.132V174.086V187.537V189.827H224.132V174.086H213.734L213.03 171.796Z" fill="#2FBB18"/>
<path d="M213.03 206.112H203.132V208.403V221.853V224.143H224.132V208.403H213.734L213.03 206.112Z" fill="#2FBB18"/>
<path d="M253.51 206.112H243.612V208.403V221.853V224.143H264.612V208.403H254.214L253.51 206.112Z" fill="#2FBB18"/>
<path d="M213.03 240.428H203.132V242.719V256.169V258.459H224.132V242.719H213.734L213.03 240.428Z" fill="#2FBB18"/>
<path d="M253.51 240.428H243.612V242.719V256.169V258.459H264.612V242.719H254.214L253.51 240.428Z" fill="#2FBB18"/>
<g opacity="0.5">
<path d="M149.558 103.164H139.652V105.455V118.905V121.195H160.66V105.455H150.262L149.558 103.164Z" fill="white"/>
<path d="M149.558 137.48H139.652V139.771V153.221V155.511H160.66V139.771H150.262L149.558 137.48Z" fill="white"/>
<path d="M149.558 171.796H139.652V174.086V187.537V189.827H160.66V174.086H150.262L149.558 171.796Z" fill="white"/>
<path d="M149.558 206.112H139.652V208.403V221.853V224.143H160.66V208.403H150.262L149.558 206.112Z" fill="white"/>
<path d="M149.558 240.428H139.652V242.719V256.169V258.459H160.66V242.719H150.262L149.558 240.428Z" fill="white"/>
<path d="M213.03 103.164H203.132V105.455V118.905V121.195H224.132V105.455H213.734L213.03 103.164Z" fill="white"/>
<path d="M254.214 105.455L253.51 103.164H243.612V105.455V118.905V121.195H264.612V105.455H254.214Z" fill="white"/>
<path d="M213.03 137.48H203.132V139.771V153.221V155.511H224.132V139.771H213.734L213.03 137.48Z" fill="white"/>
<path d="M253.51 171.796H243.612V174.086V187.537V189.827H264.612V174.086H254.214L253.51 171.796Z" fill="white"/>
<path d="M253.51 137.48H243.612V139.771V153.221V155.511H264.612V139.771H254.214L253.51 137.48Z" fill="white"/>
<path d="M213.03 171.796H203.132V174.086V187.537V189.827H224.132V174.086H213.734L213.03 171.796Z" fill="white"/>
<path d="M213.03 206.112H203.132V208.403V221.853V224.143H224.132V208.403H213.734L213.03 206.112Z" fill="white"/>
<path d="M253.51 206.112H243.612V208.403V221.853V224.143H264.612V208.403H254.214L253.51 206.112Z" fill="white"/>
<path d="M213.03 240.428H203.132V242.719V256.169V258.459H224.132V242.719H213.734L213.03 240.428Z" fill="white"/>
<path d="M253.51 240.428H243.612V242.719V256.169V258.459H264.612V242.719H254.214L253.51 240.428Z" fill="white"/>
</g>
<path d="M93.9629 154.459C93.9629 154.459 93.3293 159.062 95.4272 162.21C97.5251 165.358 112.83 178.548 114.196 179.309C115.562 180.07 121.433 178.443 119.659 173.415C117.885 168.387 104.995 157.749 102.411 154.87C99.8272 151.99 97.4195 152.408 97.4195 152.408" fill="#2FBB18"/>
<path d="M93.9629 154.459C93.9629 154.459 93.3293 159.062 95.4272 162.21C97.5251 165.358 112.83 178.548 114.196 179.309C115.562 180.07 121.433 178.443 119.659 173.415C117.885 168.387 104.995 157.749 102.411 154.87C99.8272 151.99 97.4195 152.408 97.4195 152.408" stroke="#263238" stroke-miterlimit="10"/>
<path d="M117.371 171.244C117.371 171.244 120.306 171.461 125.755 171.244C131.204 171.028 144.834 171.908 146.932 171.908H149.044L148.839 177.018C148.839 177.018 138.561 177.906 131.437 179.018C124.312 180.129 118.441 181.464 112.569 178.354" fill="#2FBB18"/>
<path d="M117.371 171.244C117.371 171.244 120.306 171.461 125.755 171.244C131.204 171.028 144.834 171.908 146.932 171.908H149.044L148.839 177.018C148.839 177.018 138.561 177.906 131.437 179.018C124.312 180.129 118.441 181.464 112.569 178.354" stroke="#263238" stroke-linecap="round" stroke-linejoin="round"/>
<path d="M149.023 171.908L149.389 171.006C149.968 169.572 150.952 168.363 152.205 167.544C153.309 167.202 154.363 166.7 155.337 166.052L155.513 165.94C155.513 165.94 156.823 166.343 156.056 167.432C155.863 167.749 155.595 168.007 155.278 168.18C154.962 168.352 154.609 168.434 154.253 168.417L153.204 170.193L160.42 170.812C160.42 170.812 161.462 171.252 160.625 171.916C159.787 172.58 155.697 172.416 155.697 172.416L160.899 173.385C160.899 173.385 161.49 174.012 161.237 174.542C160.984 175.071 155.528 174.363 155.528 174.363L160.146 175.698C160.334 175.849 160.469 176.063 160.529 176.305C160.589 176.547 160.57 176.804 160.477 177.033C160.315 177.481 159.308 177.302 158.886 177.123C158.463 176.944 155.443 176.414 155.443 176.414L158.801 178.369C158.768 178.58 158.687 178.78 158.564 178.95C158.441 179.12 158.281 179.256 158.097 179.346C157.602 179.492 157.079 179.492 156.584 179.346L152.219 177.481C152.219 177.481 151.986 178.1 148.748 177.078L149.023 171.908Z" fill="white" stroke="#263238" stroke-linecap="round" stroke-linejoin="round"/>
<path d="M153.218 170.133C153.218 170.133 153.634 173.415 152.036 174.042L153.218 170.133Z" fill="white"/>
<path d="M153.218 170.133C153.218 170.133 153.634 173.415 152.036 174.042" stroke="#263238" stroke-linecap="round" stroke-linejoin="round"/>
<path d="M249.92 156.474C249.92 156.474 249.653 161.114 246.991 163.747C244.33 166.38 226.815 175.974 225.329 176.429C223.844 176.884 218.409 174.02 221.105 169.484C223.802 164.948 238.48 157.324 241.564 155.049C244.647 152.773 246.921 153.713 246.921 153.713" fill="#2FBB18"/>
<path d="M249.92 156.474C249.92 156.474 249.653 161.114 246.991 163.747C244.33 166.38 226.815 175.974 225.329 176.429C223.844 176.884 218.409 174.02 221.105 169.484C223.802 164.948 238.48 157.324 241.564 155.049C244.647 152.773 246.921 153.713 246.921 153.713" stroke="#263238" stroke-miterlimit="10"/>
<path d="M223.745 167.85C223.745 167.85 220.831 167.432 215.537 166.037C210.242 164.642 196.733 162.568 194.677 162.113L192.628 161.658L191.847 166.709C191.847 166.709 201.703 169.797 208.497 172.43C215.29 175.064 220.753 177.652 227.096 175.855" fill="#2FBB18"/>
<path d="M223.745 167.85C223.745 167.85 220.831 167.432 215.537 166.037C210.242 164.642 196.733 162.568 194.677 162.113L192.628 161.658L191.847 166.709C191.847 166.709 201.703 169.797 208.497 172.43C215.29 175.064 220.753 177.652 227.096 175.855" stroke="#263238" stroke-linecap="round" stroke-linejoin="round"/>
<path d="M192.629 161.651L192.446 160.688C192.148 159.156 191.41 157.76 190.334 156.69C189.318 156.106 188.383 155.378 187.553 154.527L187.412 154.377C187.412 154.377 186.046 154.489 186.602 155.69C186.728 156.042 186.94 156.352 187.216 156.589C187.491 156.827 187.821 156.982 188.172 157.041L188.876 159.01L181.695 158.055C181.695 158.055 180.583 158.264 181.28 159.092C181.977 159.92 185.99 160.636 185.99 160.636L180.71 160.472C180.71 160.472 180.006 160.95 180.154 161.531C180.302 162.113 185.786 162.591 185.786 162.591L181.013 162.897C180.799 163.003 180.625 163.182 180.518 163.405C180.411 163.628 180.377 163.882 180.421 164.128C180.506 164.605 181.527 164.642 181.97 164.56C182.414 164.478 185.49 164.612 185.49 164.612L181.822 165.799C181.812 166.009 181.85 166.219 181.932 166.411C182.014 166.603 182.138 166.771 182.294 166.903C182.749 167.153 183.26 167.266 183.772 167.231L188.405 166.343C188.405 166.343 188.517 167 191.882 166.701L192.629 161.651Z" fill="white" stroke="#263238" stroke-linecap="round" stroke-linejoin="round"/>
<path d="M188.862 159.01C188.862 159.01 187.827 162.136 189.263 163.091L188.862 159.01Z" fill="white"/>
<path d="M188.862 159.01C188.862 159.01 187.827 162.136 189.263 163.091" stroke="#263238" stroke-linecap="round" stroke-linejoin="round"/>
<path d="M193.818 191.252H153.831V134.504H181.914L193.818 146.059V191.252Z" fill="white" stroke="#263238" stroke-linecap="round" stroke-linejoin="round"/>
<path d="M181.914 134.504V146.059H193.818L181.914 134.504Z" fill="#263238" stroke="#263238" stroke-linecap="round" stroke-linejoin="round"/>
<path d="M197.93 191.789C202.03 187.192 201.836 179.944 197.498 175.601C193.161 171.257 186.321 171.462 182.222 176.059C178.123 180.655 178.316 187.903 182.654 192.246C186.992 196.59 193.831 196.385 197.93 191.789Z" fill="#263238"/>
<path d="M195.895 182.599H191.319V177.757H188.827V182.599H184.258V185.247H188.827V190.088H191.319V185.247H195.895V182.599Z" fill="white"/>
<path d="M213.403 255.565H136.463L127.593 192.729H213.403V255.565Z" fill="#263238" stroke="#263238" stroke-linecap="round" stroke-linejoin="round"/>
<path d="M173.311 192.729L172.156 189.208C171.846 188.265 171.267 187.447 170.499 186.868C169.731 186.289 168.811 185.978 167.869 185.978H136.738V255.565H213.685L222.548 192.729H173.311Z" fill="#2FBB18" stroke="#263238" stroke-linecap="round" stroke-linejoin="round"/>
<path d="M89.2249 285.852C89.2249 285.852 90.9357 289.918 92.6393 291.276C94.343 292.634 97.5673 292.41 97.9757 294.67C98.384 296.93 96.6944 297.154 95.2019 297.154C93.7094 297.154 89.0137 297.154 88.1619 296.93C85.4715 295.93 82.9497 294.479 80.6925 292.634C78.1369 290.396 77.4963 290.597 79.4182 286.3C81.3401 282.003 89.2249 285.852 89.2249 285.852Z" fill="#2FBB18" stroke="#263238" stroke-miterlimit="10"/>
<path d="M98.0321 295.103C95.9623 295.491 91.9073 296.02 88.338 295.103C84.7687 294.185 80.5518 290.783 78.4187 288.918C77.9751 290.679 78.8129 291 80.6926 292.648C82.9522 294.481 85.4739 295.919 88.162 296.908C89.0139 297.132 93.7095 297.132 95.202 297.132C96.6945 297.132 98.1659 296.953 98.0321 295.103Z" fill="white" stroke="#263238" stroke-miterlimit="10"/>
<path d="M95.6242 212.013C95.6242 212.013 92.6955 238.049 90.3512 244.606C88.0069 251.163 84.4728 255.311 83.621 260.272C82.7691 265.233 79.397 286.293 79.397 286.293C79.397 286.293 81.509 288.531 83.0226 288.329C84.5362 288.128 88.9925 288.784 90.2738 286.293C91.5551 283.801 91.8719 279.772 92.0831 279.094C92.2943 278.415 101.235 260.086 103.396 252.849C105.558 245.613 112.4 215.728 112.189 212.11" fill="#263238"/>
<path d="M95.6242 212.013C95.6242 212.013 92.6955 238.049 90.3512 244.606C88.0069 251.163 84.4728 255.311 83.621 260.272C82.7691 265.233 79.397 286.293 79.397 286.293C79.397 286.293 81.509 288.531 83.0226 288.329C84.5362 288.128 88.9925 288.784 90.2738 286.293C91.5551 283.801 91.8719 279.772 92.0831 279.094C92.2943 278.415 101.235 260.086 103.396 252.849C105.558 245.613 112.4 215.728 112.189 212.11" stroke="#263238" stroke-miterlimit="10"/>
<path d="M94.0612 194.154C94.0612 194.154 91.4493 202.293 92.4279 209.566C93.4065 216.84 101.094 220.48 106.508 219.436C111.922 218.392 113.372 214.415 113.372 207.5C113.354 203.221 113.074 198.947 112.534 194.706C106.496 196.751 99.9809 196.557 94.0612 194.154Z" fill="#263238" stroke="#263238" stroke-miterlimit="10"/>
<path d="M95.8634 141.158C95.8634 141.158 90.9354 150.856 90.6327 158.644C90.33 166.433 94.0612 194.154 94.0612 194.154C94.0612 194.154 95.5325 197.272 102.566 197.615C109.598 197.959 112.534 195.377 112.534 195.377C112.534 195.377 114.984 177.712 114.984 168.357C114.984 159.003 108.12 145.149 108.12 145.149L95.8634 141.158Z" fill="#2FBB18" stroke="#263238" stroke-miterlimit="10"/>
<path d="M92.0762 162.725C92.0762 162.725 92.5056 168.208 98.7642 168.895" stroke="#263238" stroke-linecap="round" stroke-linejoin="round"/>
<path d="M93.8008 170.036C96.0818 171.462 98.7774 171.95 101.376 171.409" stroke="#263238" stroke-linecap="round" stroke-linejoin="round"/>
<path d="M96.1733 194.482C96.1733 194.482 102.425 188.775 105.663 183.516" stroke="#263238" stroke-linecap="round" stroke-linejoin="round"/>
<path d="M105.016 188.999C105.016 188.999 99.6232 194.967 97.6802 195.631" stroke="#263238" stroke-linecap="round" stroke-linejoin="round"/>
<path d="M99.4543 128.312C99.4543 128.312 99.2923 133.161 98.8066 136.451C98.3208 139.741 98.1519 141.128 98.1519 141.128L107.142 144.761C107.142 144.761 106.318 138.182 107.466 135.406C108.112 133.925 108.554 132.352 108.775 130.737C108.775 130.737 105.832 123.112 102.728 122.59C99.6232 122.068 99.4543 128.312 99.4543 128.312Z" fill="white" stroke="#263238" stroke-miterlimit="10"/>
<path d="M111.718 114.31C111.718 114.31 113.351 112.75 111.225 107.596C109.099 102.441 98.8063 102.747 93.8995 107.417C88.9926 112.087 87.3593 120.412 91.6115 125.776C95.8636 131.139 100.925 131.841 104.199 129.759C107.473 127.678 107.789 123.702 107.789 122.143C107.789 120.583 106.649 116.771 108.282 115.734C109.347 115.065 110.507 114.584 111.718 114.31Z" fill="#263238" stroke="#263238" stroke-miterlimit="10"/>
<path d="M94.8779 141.501L109.43 147.738L108.613 142.717L95.6946 136.995L94.8779 141.501Z" fill="white" stroke="#263238" stroke-miterlimit="10"/>
<path d="M113.548 291.955C113.548 291.955 117.815 294.67 120.159 295.796C122.503 296.923 122.721 296.699 122.721 298.281C122.721 299.862 122.933 300.093 119.089 300.093C115.245 300.093 104.157 300.317 103.094 299.415C102.031 298.512 112.056 291.276 113.548 291.955Z" fill="#2FBB18" stroke="#263238" stroke-miterlimit="10"/>
<path d="M119.088 300.093C122.686 300.093 122.728 299.892 122.721 298.601C111.788 298.952 106.459 298.512 103.868 298.005C103.164 298.698 102.847 299.236 103.094 299.444C104.192 300.317 115.252 300.093 119.088 300.093Z" fill="white" stroke="#263238" stroke-miterlimit="10"/>
<path d="M111.232 113.094C111.232 113.094 103.551 116.906 103.551 118.316C103.551 119.726 106.818 120.218 105.839 121.956C105.374 122.818 104.822 123.623 104.192 124.358C104.192 124.358 105.494 126.783 104.354 127.126C103.213 127.469 102.721 127.469 101.538 125.738C100.355 124.008 99.2498 123.142 98.926 126.089C98.6021 129.036 99.9045 129.55 100.883 129.722C101.643 129.818 102.411 129.818 103.171 129.722C103.171 129.722 104.811 133.877 105.952 134.399C107.092 134.922 112.654 135.615 113.794 134.228C114.935 132.84 114.125 126.604 114.125 126.604C114.125 126.604 115.759 126.261 115.759 124.701C115.759 123.142 113.147 120.889 113.147 120.889C113.147 120.889 113.794 119.852 113.309 117.428C112.94 115.833 112.23 114.35 111.232 113.094Z" fill="white" stroke="#263238" stroke-miterlimit="10"/>
<path d="M111.45 121.658C111.45 122.202 111.246 122.65 110.986 122.65C110.725 122.65 110.521 122.202 110.521 121.658C110.521 121.113 110.725 120.673 110.986 120.673C111.246 120.673 111.45 121.113 111.45 121.658Z" fill="#263238"/>
<path d="M109.38 119.89C109.38 119.89 109.62 118.398 111.739 118.689" stroke="#263238" stroke-linecap="round" stroke-linejoin="round"/>
<path d="M112.147 128.857C111.356 128.784 110.624 128.381 110.113 127.738" stroke="#263238" stroke-linecap="round" stroke-linejoin="round"/>
<path d="M94.3359 212.461C94.3359 212.461 95.8284 228.06 97.7433 234.841C99.6582 241.622 99.6652 244.539 99.0246 250.44C98.3839 256.341 96.2508 261.742 97.7433 267.165C99.2358 272.589 102.228 295.797 102.228 296.699C102.228 297.602 102.01 298.937 103.08 299.415C104.15 299.892 113.316 293.312 113.534 291.955C113.752 290.597 112.042 286.531 112.042 282.913C112.042 279.295 113.105 258.124 113.105 247.956C113.105 237.788 114.175 218.339 110.76 209.298" fill="#263238"/>
<path d="M94.3359 212.461C94.3359 212.461 95.8284 228.06 97.7433 234.841C99.6582 241.622 99.6652 244.539 99.0246 250.44C98.3839 256.341 96.2508 261.742 97.7433 267.165C99.2358 272.589 102.228 295.797 102.228 296.699C102.228 297.602 102.01 298.937 103.08 299.415C104.15 299.892 113.316 293.312 113.534 291.955C113.752 290.597 112.042 286.531 112.042 282.913C112.042 279.295 113.105 258.124 113.105 247.956C113.105 237.788 114.175 218.339 110.76 209.298" stroke="#263238" stroke-miterlimit="10"/>
<path d="M95.561 222.308C95.561 222.308 96.5678 229.895 97.7575 234.841C98.9473 239.787 100.165 242.107 98.715 248.269C97.2647 254.431 96.7719 256.475 97.497 259.578" stroke="white" stroke-linecap="round" stroke-linejoin="round"/>
<path d="M226.026 287.538C226.026 287.538 217.297 290.627 215.22 291.268C213.143 291.91 211.27 292.372 213.143 294.573C215.016 296.774 224.161 296.998 226.857 296.998C229.553 296.998 231.433 298.534 232.052 296.774C232.672 295.013 232.679 290.164 232.679 290.164L226.026 287.538Z" fill="#2FBB18" stroke="#263238" stroke-miterlimit="10"/>
<path d="M232.32 295.722C229.997 295.647 225.611 295.416 220.422 294.707C217.697 294.43 215.02 293.758 212.467 292.708C212.277 293.148 212.467 293.738 213.171 294.588C215.044 296.789 224.189 297.013 226.885 297.013C229.582 297.013 231.461 298.549 232.081 296.789C232.191 296.442 232.271 296.085 232.32 295.722Z" fill="white" stroke="#263238" stroke-miterlimit="10"/>
<path d="M252.419 289.739C252.419 289.739 245.766 295.028 243.901 296.125C242.035 297.221 241.613 298.989 243.274 298.989C244.936 298.989 258.445 299.43 260.318 298.109C262.191 296.789 259.487 290.403 259.487 290.403C259.487 290.403 254.496 289.739 252.419 289.739Z" fill="#2FBB18" stroke="#263238" stroke-miterlimit="10"/>
<path d="M260.318 298.109C260.846 297.736 261.022 296.953 260.966 296.028C254.926 297.154 248.786 297.555 242.662 297.221C242 298.124 242.134 298.989 243.302 298.989C244.936 298.989 258.445 299.43 260.318 298.109Z" fill="white" stroke="#263238" stroke-miterlimit="10"/>
<path d="M236.417 187.522C236.417 187.522 227.265 221.211 226.857 229.141C226.449 237.071 226.026 279.176 226.026 281.153V287.538L232.679 290.179C232.679 290.179 235.798 265.255 236.417 259.31C237.037 253.364 237.459 246.755 238.29 243.644C239.121 240.533 240.782 227.978 241.409 225.367C242.035 222.756 243.485 211.715 243.07 199.16C242.655 186.605 237.874 184.434 236.417 187.522Z" fill="#263238" stroke="#263238" stroke-miterlimit="10"/>
<path d="M235.382 185.098C235.382 185.098 235.586 195.004 235.798 204.695C236.009 214.386 235.382 229.141 237.459 239.712C239.536 250.283 247.639 273.23 248.47 276.967C249.3 280.705 252.215 290.627 252.215 290.627C252.215 290.627 256.784 291.067 259.487 290.403C259.487 290.403 256.784 269 256.369 260.63C255.953 252.26 250.962 240.369 249.927 237.504C248.892 234.639 252.032 211.745 252.032 211.745C252.032 211.745 257.016 202.047 255.77 195.885C255.061 192.243 253.405 188.884 250.99 186.187C250.99 186.187 238.494 187.992 235.382 185.098Z" fill="#263238" stroke="#263238" stroke-miterlimit="10"/>
<path d="M236.051 198.906C236.051 198.906 235.812 224.36 236.755 231.558C237.698 238.757 238.691 241.592 238.691 241.592" stroke="white" stroke-linecap="round" stroke-linejoin="round"/>
<path d="M250.547 143.232C250.547 143.232 248.054 141.255 242.655 145.47C237.255 149.685 231.018 161.099 231.433 165.508C231.848 169.916 235.382 182.904 235.382 185.105C235.382 187.306 236.002 186.425 238.494 187.306C240.986 188.186 248.054 187.97 249.716 187.089C251.377 186.209 250.547 180.48 250.962 175.638C251.377 170.797 254.081 161.323 253.877 154.497C253.672 147.671 251.377 144.135 250.547 143.232Z" fill="#2FBB18" stroke="#263238" stroke-miterlimit="10"/>
<path d="M240.367 118.152C240.367 118.152 237.875 121.456 237.875 123.657C237.875 125.858 237.41 128.133 236.164 129.215C234.918 130.296 234.96 131.363 236.002 131.587L237.044 131.803C237.044 131.803 237.628 136.608 238.452 138.376C239.276 140.144 242.232 138.629 242.852 138.376C243.471 138.122 242.648 144.761 242.648 145.425C242.648 146.089 248.878 145.202 249.688 145.202C250.497 145.202 250.103 137.272 250.934 134.855C251.765 132.437 254.454 129.349 251.145 124.06C247.836 118.771 242.239 114.407 240.367 118.152Z" fill="white" stroke="#263238" stroke-miterlimit="10"/>
<path d="M239.458 127.969C239.458 128.513 239.663 128.954 239.923 128.954C240.184 128.954 240.388 128.513 240.388 127.969C240.388 127.424 240.184 126.977 239.923 126.977C239.663 126.977 239.458 127.424 239.458 127.969Z" fill="#263238"/>
<path d="M238.191 133.534C238.191 133.534 238.895 134.392 240.486 133.243" stroke="#263238" stroke-linecap="round" stroke-linejoin="round"/>
<path d="M238.733 125.209C238.733 125.209 239.944 123.635 241.43 125.641" stroke="#263238" stroke-linecap="round" stroke-linejoin="round"/>
<path d="M246.266 142.844C246.266 142.844 240.874 144.896 240.008 146.268C239.142 147.641 238.501 149.924 239.796 149.924C241.092 149.924 246.689 145.933 248.202 145.582C249.716 145.231 248.202 140.785 246.266 142.844Z" fill="white" stroke="#263238" stroke-miterlimit="10"/>
<path d="M240.367 118.152C240.881 121.097 242.017 123.882 243.69 126.298C246.393 130.028 249.096 129.162 248.47 132.266C247.843 135.369 243.274 139.726 245.147 144.605C247.019 149.484 251.173 150.327 252.004 152.311C252.835 154.295 254.707 154.952 252.63 162.882C250.554 170.812 247.435 177.19 250.131 184.68C252.827 192.17 259.903 194.147 265.302 191.506C270.702 188.865 267.379 180.495 268.632 175.429C269.885 170.364 280.685 166.403 276.939 152.303C273.194 138.204 264.472 134.467 262.155 129.618C259.839 124.769 260.29 116.63 255.51 113.325C250.73 110.02 245.323 112.885 243.457 113.325C241.592 113.765 240.543 110.46 236.804 112.004C233.066 113.549 230.835 120.956 237.508 122.508C238.209 120.887 239.177 119.412 240.367 118.152Z" fill="#263238" stroke="#263238" stroke-miterlimit="10"/>
<path d="M247.238 128.7C248.541 130.132 250.102 131.273 251.828 132.057C259.572 135.653 264.929 140.8 264.929 149.536C264.929 158.271 257.185 164.195 256.918 171.655C256.65 179.115 260.557 184.762 264.662 182.449C268.766 180.137 266.851 175.511 265.366 175.511" stroke="white" stroke-linecap="round" stroke-linejoin="round"/>
<path d="M243.584 120.486C243.743 122.026 244.153 123.526 244.795 124.918" stroke="white" stroke-linecap="round" stroke-linejoin="round"/>
<path d="M268.858 144.851C270.421 148.504 271.233 152.469 271.237 156.481C270.991 165.478 260.804 169.596 259.586 174.997C258.495 179.853 261.775 184.247 264.683 182.457" stroke="white" stroke-linecap="round" stroke-linejoin="round"/>
<path d="M265.901 138.995C266.586 140.082 267.207 141.213 267.759 142.382" stroke="white" stroke-linecap="round" stroke-linejoin="round"/>
<path d="M254.496 156.481C255.48 153.03 255.394 149.335 254.249 145.94C252.306 140.539 250.124 137.965 250.124 135.138" stroke="white" stroke-linecap="round" stroke-linejoin="round"/>
<path d="M240.367 118.152C240.002 117.479 239.481 116.915 238.855 116.513C238.228 116.111 237.515 115.884 236.783 115.854C234.354 115.854 234.594 119.196 237.262 119.711" stroke="white" stroke-linecap="round" stroke-linejoin="round"/>
<path d="M97.7572 150.528C97.7572 150.528 94.7722 155.049 95.4129 159.569C96.0535 164.09 105.656 186.694 106.719 188.275C107.782 189.857 114.822 191.446 115.463 185.112C116.103 178.779 107.789 160.248 106.508 155.728C105.227 151.207 102.453 150.304 102.453 150.304" fill="#2FBB18"/>
<path d="M97.7572 150.528C97.7572 150.528 94.7722 155.049 95.4129 159.569C96.0535 164.09 105.656 186.694 106.719 188.275C107.782 189.857 114.822 191.446 115.463 185.112C116.103 178.779 107.789 160.248 106.508 155.728C105.227 151.207 102.453 150.304 102.453 150.304" stroke="#263238" stroke-miterlimit="10"/>
<path d="M113.879 180.383C113.879 180.383 120.13 181.226 124.509 184.031C128.888 186.836 142.813 192.088 142.813 192.088L141.814 196.467C141.814 196.467 126.487 194.594 119.99 193.326C113.492 192.058 109.275 191.453 106.874 187.798" fill="#2FBB18"/>
<path d="M113.879 180.383C113.879 180.383 120.13 181.226 124.509 184.031C128.888 186.836 142.813 192.088 142.813 192.088L141.814 196.467C141.814 196.467 126.487 194.594 119.99 193.326C113.492 192.058 109.275 191.453 106.874 187.798" stroke="#263238" stroke-miterlimit="10"/>
<path d="M155.478 197.638L149.79 195.75L149.853 195.116C149.853 195.116 154.704 196.109 155.232 196.176C155.76 196.243 155.936 195.967 155.936 195.616C155.901 195.35 155.785 195.104 155.605 194.915L147.65 191.886L152.219 190.976C152.88 190.417 152.148 189.857 152.148 189.857L146.784 189.991L142.827 192.088L141.828 196.467C141.828 196.467 149.17 203.181 149.501 203.397C149.832 203.613 150.029 203.956 150.557 203.606C151.085 203.255 150.888 202.86 150.888 202.86L148.544 200.309L152.585 201.569C153.042 201.711 153.113 201.853 153.444 201.711C153.775 201.569 153.838 200.659 153.838 200.659L149.135 198.347L149.339 197.854C149.339 197.854 154.556 199.182 154.88 199.182C155.204 199.182 155.408 199.182 155.675 198.555C155.759 198.405 155.785 198.226 155.749 198.055C155.712 197.885 155.615 197.735 155.478 197.638Z" fill="white" stroke="#263238" stroke-linecap="round" stroke-linejoin="round"/>
<path d="M251.898 152.482C251.898 152.482 249.012 148.238 244.943 150.99C240.874 153.743 226.118 168.23 226.118 168.23C226.118 168.23 223.133 171.96 227.526 174.691C231.919 177.421 249.941 160.442 251.891 159.025" fill="#2FBB18"/>
<path d="M251.898 152.482C251.898 152.482 249.012 148.238 244.943 150.99C240.874 153.743 226.118 168.23 226.118 168.23C226.118 168.23 223.133 171.96 227.526 174.691C231.919 177.421 249.941 160.442 251.891 159.025" stroke="#263238" stroke-miterlimit="10"/>
<path d="M229.096 168.298C229.096 168.298 226.906 166.843 221.929 165.918C216.952 164.993 199.851 154.9 199.851 154.9L197.035 158.63C197.035 158.63 209.067 168.007 215.339 172.02C221.612 176.034 224.414 177.093 226.427 176.877C228.441 176.66 233.137 171.998 233.137 171.998" fill="#2FBB18"/>
<path d="M229.096 168.298C229.096 168.298 226.906 166.843 221.929 165.918C216.952 164.993 199.851 154.9 199.851 154.9L197.035 158.63C197.035 158.63 209.067 168.007 215.339 172.02C221.612 176.034 224.414 177.093 226.427 176.877C228.441 176.66 233.137 171.998 233.137 171.998" stroke="#263238" stroke-miterlimit="10"/>
<path d="M188.045 146.82L192.593 150.662L193.037 150.267C193.037 150.267 189.644 146.656 189.306 146.238C188.968 145.821 189.066 145.492 189.306 145.306C189.525 145.196 189.771 145.163 190.01 145.209L196.641 150.379L194.853 145.97C194.924 145.097 195.747 145.418 195.747 145.418L198.563 150.088L199.436 154.683L197.254 158.838C197.254 158.838 187.208 155.22 186.87 155.056C186.532 154.892 186.166 154.907 186.131 154.258C186.095 153.609 186.539 153.557 186.539 153.557L189.763 154.221L186.637 151.438C186.278 151.117 186.138 151.14 186.06 150.774C185.983 150.409 186.652 149.864 186.652 149.864L190.974 152.632L191.242 152.191C191.242 152.191 187.377 148.461 187.194 148.156C187.011 147.85 186.905 147.701 187.243 147.134C187.313 146.982 187.436 146.865 187.585 146.807C187.734 146.748 187.899 146.753 188.045 146.82Z" fill="white" stroke="#263238" stroke-linecap="round" stroke-linejoin="round"/>
</svg>
